<?xml version="1.0" encoding="utf-8"?>
<!-- Generator: Adobe Illustrator 16.0.0, SVG Export Plug-In . SVG Version: 6.00 Build 0)  -->
<!DOCTYPE svg PUBLIC "-//W3C//DTD SVG 1.1//EN" "http://www.w3.org/Graphics/SVG/1.1/DTD/svg11.dtd">
<svg version="1.1" xmlns="http://www.w3.org/2000/svg" xmlns:xlink="http://www.w3.org/1999/xlink" x="0px" y="0px"
	 width="414.401px" height="253.574px" viewBox="0 0 414.401 253.574" style="enable-background:new 0 0 414.401 253.574;"
	 xml:space="preserve">
<style type="text/css">
<![CDATA[
	.st0{fill:none;stroke:#FFFFFF;stroke-width:2;stroke-linecap:round;stroke-linejoin:round;stroke-miterlimit:10;}
	.st1{fill-rule:evenodd;clip-rule:evenodd;fill:none;stroke:#FFFFFF;stroke-miterlimit:10;}
	.st2{display:none;}
]]>
</style>
<g id="Layer_1" class="st2">
	
		<image style="display:inline;overflow:visible;opacity:0.5;" width="552" height="340" xlink:href="DBE15D2D.jpg"  transform="matrix(0.7499 0 0 0.7499 0.8872 0.1279)">
	</image>
</g>
<g id="Layer_2">
	<g>
		<path class="st0" d="M56.32,201.464c-0.719-1.387-0.345-1.511-0.345-3.071c0-1.559,0.082-1.559,0.082-3.117
			c0-1.56,0.246-1.56,0.246-3.119c0-1.561-0.127-1.561-0.127-3.121c0-1.562-0.003-1.562-0.003-3.123
			c0-1.561-0.184-1.561-0.184-3.122c0-1.561,0.1-1.561,0.1-3.121c0-1.56-0.055-1.56-0.055-3.119s0.347-1.56,0.347-3.118
			s-0.401-1.559-0.401-3.118s0.397-1.56,0.397-3.118c0-1.56-0.048-1.56-0.048-3.119c0-1.561-0.173-1.561-0.173-3.12
			c0-1.562,0.09-1.562,0.09-3.122c0-1.563,0.104-1.563,0.104-3.124s0.076-1.562,0.076-3.123c0-1.561-0.24-1.561-0.24-3.121
			c0-1.56-0.089-1.56-0.089-3.12c0-1.56,0.132-1.56,0.132-3.119c0-1.561,0.156-1.561,0.156-3.121s-0.074-1.561-0.074-3.121
			c0-1.563-0.043-1.563-0.043-3.124s-0.189-1.562-0.189-3.124c0-1.561,0.146-1.561,0.146-3.122c0-1.561-0.073-1.561-0.073-3.122
			c0-1.561,0.152-1.561,0.152-3.121c0-1.561-0.04-1.561-0.04-3.123c0-1.563-0.076-1.563-0.076-3.125s-0.07-1.562-0.07-3.125
			c0-1.561,0.205-1.561,0.205-3.122c0-1.562-0.105-1.562-0.105-3.123c0-1.562,0.017-1.562,0.017-3.124
			c0-1.563,0.131-1.563,0.131-3.126c0-1.562-0.064-1.562-0.064-3.124c0-1.562,0.166-1.562,0.166-3.123
			c0-1.563-0.208-1.563-0.208-3.125c0-1.563-0.268-1.563-0.268-3.125c0-1.562,0.229-1.562,0.229-3.124s-0.147-1.562-0.147-3.125
			c0-1.563,0.186-1.563,0.186-3.126c0-1.563-0.252-1.563-0.252-3.125c0-1.563,0.179-1.563,0.179-3.125s0.219-1.563,0.219-3.125
			c0-1.563,0.029-1.563,0.029-3.126c0-1.562-0.037-1.562-0.037-3.123c0-1.561-0.016-1.561-0.016-3.121
			c0-1.561,0.044-1.561,0.044-3.123c0-1.563,0.039-1.563,0.039-3.126c0-1.561-0.155-1.561-0.155-3.123
			c0-1.563-0.333-1.563-0.333-3.126c0-1.562,0.441-1.562,0.441-3.125c0-1.564,0.021-1.564,0.021-3.128
			c0-1.563-0.282-1.563-0.282-3.125c0-1.564,0.168-1.564,0.168-3.127c0-1.564-0.02-1.564-0.02-3.128
			c0-1.564-0.133-1.564-0.133-3.129c0-1.563,0.033-1.563,0.033-3.125c0-1.564-0.12-1.564-0.12-3.128s-0.082-1.564-0.082-3.129
			c0-1.565,0.398-1.565,0.398-3.13c0-1.567,0.025-1.567,0.025-3.135s-0.205-1.563-0.317-3.126c-0.161-2.238-0.038-1.339,2.212-3.756
			s1.085-2.762,3.232-2.804c1.563-0.031,1.566,0.07,3.131,0.069s1.564,0.055,3.129,0.054s1.565,0.164,3.129,0.162
			c1.565-0.001,1.565-0.073,3.13-0.074c1.566-0.001,1.566,0.081,3.131,0.08c1.565-0.001,1.565-0.189,3.13-0.19
			s1.565-0.128,3.13-0.13c1.564-0.001,1.564-0.099,3.129-0.1c1.564-0.001,1.564,0.213,3.129,0.212
			c1.564-0.001,1.564,0.019,3.128,0.018c1.564-0.001,1.564,0.037,3.129,0.036c1.565-0.001,1.565,0.135,3.129,0.134
			c1.565-0.001,1.565-0.272,3.13-0.274c1.565-0.001,1.565,0.184,3.131,0.183c1.566-0.001,1.565-0.291,3.131-0.292
			c1.565-0.001,1.565,0.262,3.13,0.261s1.565-0.187,3.13-0.188c1.565-0.001,1.565,0.245,3.13,0.244
			c1.564-0.001,1.564-0.096,3.129-0.097c1.564-0.001,1.565,0.197,3.129,0.196c1.565-0.001,1.565-0.33,3.13-0.332
			c1.565-0.001,1.565-0.047,3.131-0.048s1.566,0.384,3.131,0.383s1.565-0.335,3.131-0.336c1.565-0.001,1.565,0.175,3.13,0.174
			s1.565,0.182,3.13,0.181s1.565-0.451,3.13-0.452c1.565-0.001,1.565,0.068,3.13,0.067c1.565-0.001,1.565-0.042,3.13-0.043
			c1.566-0.001,1.566,0.252,3.132,0.251c1.565-0.001,1.565-0.25,3.131-0.25s1.565,0.272,3.131,0.271
			c1.563-0.001,1.563-0.343,3.125-0.344c1.563-0.001,1.563,0.32,3.127,0.319c1.564-0.001,1.564-0.155,3.129-0.157
			c1.565-0.001,1.565-0.135,3.131-0.137c1.565-0.001,1.565,0.218,3.131,0.217c1.564-0.001,1.564-0.112,3.129-0.113
			c1.563-0.001,1.564,0.299,3.127,0.298c1.563-0.001,1.563-0.06,3.126-0.062c1.563-0.001,1.563,0.017,3.126,0.015
			c1.563-0.001,1.563,0.016,3.126,0.014c1.563-0.001,1.563-0.338,3.127-0.339c1.564-0.001,1.564-0.003,3.128-0.004
			c1.565-0.001,1.565,0.12,3.13,0.119c1.566-0.001,1.566,0.281,3.133,0.28c1.565-0.001,1.565-0.303,3.131-0.304
			c1.565-0.001,1.565-0.019,3.129-0.02c1.563-0.001,1.563,0.018,3.128,0.017s1.564,0.057,3.129,0.056s1.564,0.032,3.128,0.031
			c1.565-0.001,1.565,0.057,3.13,0.056c1.566-0.001,1.566,0.11,3.132,0.109c1.566-0.001,1.566-0.333,3.133-0.334
			c1.564-0.001,1.564,0.076,3.13,0.074c1.564-0.001,1.565,0.169,3.13,0.168c1.565-0.001,1.564-0.216,3.13-0.217
			s1.565-0.014,3.131-0.015c1.566-0.001,1.566,0.069,3.133,0.068c1.565-0.001,1.565-0.056,3.132-0.057
			c1.565-0.001,1.565-0.114,3.131-0.115c1.565-0.001,1.565,0.04,3.131,0.039c1.565-0.001,1.565,0.065,3.132,0.064
			s1.566,0.003,3.134,0.002c1.565-0.001,1.565-0.104,3.132-0.105c1.565-0.001,1.565,0.172,3.132,0.17
			c1.565-0.001,1.566,0.126,3.132,0.125c1.567-0.001,1.566-0.247,3.134-0.248c1.566-0.001,1.566,0.123,3.133,0.122
			s1.566-0.155,3.133-0.156c1.566-0.001,1.566,0.093,3.134,0.092c1.566-0.001,1.566,0.207,3.133,0.206
			c1.567-0.001,1.566-0.26,3.134-0.261c1.566-0.001,1.567,0.125,3.134,0.124c1.566-0.001,1.567,0.21,3.134,0.208
			c1.565-0.001,1.565-0.095,3.131-0.096c1.564-0.001,1.564-0.049,3.129-0.051c1.565-0.001,1.565-0.072,3.131-0.073
			c1.567-0.001,1.567-0.083,3.135-0.084c1.565-0.001,1.565-0.007,3.131-0.008c1.567-0.001,1.567,0.12,3.135,0.119
			c1.566-0.001,1.566,0.075,3.133,0.074c1.568-0.001,1.567-0.352,3.136-0.353c1.566-0.001,1.566,0.029,3.134,0.027
			c1.567-0.001,1.567,0.178,3.136,0.177c1.568-0.001,1.568,0.229,3.137,0.228s1.568-0.086,3.137-0.087
			c1.567-0.001,1.567,0.066,3.134,0.065c1.568-0.001,1.568-0.402,3.137-0.403s1.568,0.282,3.137,0.281
			c1.569-0.001,1.569,0.003,3.139,0.002c1.571-0.001,1.571,0.097,3.143,0.096c1.572-0.001,1.585-0.377,3.149-0.226
			c1.651,0.159,1.5,0.667,3.006,1.414c1.104,0.548,2.438,1.013,2.808,1.807c0.337,0.722,0.375,1.769,0.73,2.589
			c0.568,1.311,1.273,1.032,1.42,2.353c0.172,1.556-0.115,1.59-0.115,3.155c0,1.566-0.236,1.566-0.236,3.132
			c0,1.567,0.193,1.567,0.193,3.134c0,1.568-0.093,1.568-0.093,3.136s-0.134,1.568-0.134,3.135c0,1.567-0.021,1.567-0.021,3.134
			c0,1.566,0.326,1.566,0.326,3.132s-0.283,1.566-0.283,3.131s0.13,1.565,0.13,3.131s-0.115,1.565-0.115,3.131
			c0,1.566,0.289,1.566,0.289,3.132c0,1.566-0.344,1.566-0.344,3.133c0,1.567,0.158,1.567,0.158,3.135
			c0,1.569-0.089,1.569-0.089,3.137c0,1.568,0.341,1.568,0.341,3.136c0,1.567-0.096,1.567-0.096,3.134
			c0,1.566-0.336,1.566-0.336,3.133c0,1.566,0.112,1.566,0.112,3.133s-0.105,1.566-0.105,3.133c0,1.567,0.174,1.567,0.174,3.135
			c0,1.568-0.122,1.568-0.122,3.137c0,1.569-0.074,1.569-0.074,3.137c0,1.567,0.392,1.567,0.392,3.135
			c0,1.567-0.173,1.567-0.173,3.134s-0.119,1.567-0.119,3.134c0,1.568,0.309,1.568,0.309,3.136c0,1.569-0.159,1.569-0.159,3.138
			c0,1.568,0.095,1.568,0.095,3.137c0,1.568-0.061,1.568-0.061,3.135s-0.042,1.567-0.042,3.135c0,1.568-0.065,1.568-0.065,3.137
			c0,1.569,0.083,1.569,0.083,3.139c0,1.568-0.217,1.568-0.217,3.137c0,1.568,0.284,1.568,0.284,3.136s-0.296,1.568-0.296,3.137
			c0,1.569,0.266,1.569,0.266,3.139c0,1.568-0.264,1.568-0.264,3.137c0,1.569,0.339,1.569,0.339,3.137
			c0,1.569-0.367,1.569-0.367,3.139c0,1.568,0.146,1.568,0.146,3.138s0.172,1.569,0.172,3.139s-0.121,1.569-0.121,3.138
			c0,1.569,0.172,1.569,0.172,3.139c0,1.568-0.233,1.568-0.233,3.137c0,1.566,0.202,1.566,0.202,3.133
			c0,1.568-0.246,1.568-0.246,3.136c0,1.569,0.102,1.569,0.102,3.14c0,1.568,0.269,1.568,0.269,3.136
			c0,1.569-0.435,1.569-0.435,3.139s0.304,1.569,0.304,3.138c0,1.57-0.342,1.57-0.342,3.141c0,1.569,0.184,1.569,0.184,3.139
			c0,1.57,0.115,1.57,0.115,3.141s-0.043,1.57-0.043,3.142s-0.104,1.571-0.104,3.142c0,1.568,0.129,1.568,0.129,3.138
			c0,1.571-0.112,1.571-0.112,3.142s0.22,1.57,0.22,3.142s-0.325,1.571-0.325,3.143c0,1.574,0.132,1.574,0.132,3.148
			c0,1.573,0.259,1.586,0.15,3.155c-0.05,0.722-0.477,0.917-0.852,1.104c-0.022,0.011-1.043,0.266-3.072,0.274
			c-0.875,0.004-1.928-0.269-3.144-0.266c-0.948,0.003-1.996,0.399-3.141,0.402c-0.979,0.002-2.028-0.415-3.144-0.414
			c-0.995,0.002-2.043-0.054-3.143-0.053c-1.005,0.001-2.053,0.035-3.142,0.036c-1.013,0.001-2.061,0.19-3.143,0.191
			c-1.018,0.001-2.064,0.095-3.142,0.096c-1.021,0.001-2.067,0.117-3.14,0.118c-1.023,0-2.07,0.027-3.14,0.027
			c-1.026,0-2.073-0.147-3.14-0.146c-1.028,0-2.075-0.283-3.14-0.283c-1.03,0.001-2.077,0.267-3.14,0.268
			c-1.032,0-2.079,0.131-3.14,0.132c-1.033,0-2.08-0.137-3.141-0.137c-1.034,0-2.081-0.232-3.141-0.232
			c-1.035,0-2.082,0.3-3.141,0.301c-1.036,0-2.083-0.125-3.141-0.125c-1.037,0-2.084-0.035-3.142-0.035
			c-1.038,0-2.085,0.165-3.141,0.165c-1.039,0-2.086,0.146-3.142,0.146c-1.04,0-2.087-0.227-3.143-0.227
			c-1.04,0-2.087-0.126-3.142-0.126c-1.041,0-2.088-0.119-3.143-0.119c-1.041,0-2.089,0.067-3.143,0.067
			c-1.041,0-2.089,0.129-3.143,0.129c-1.04,0-2.087,0.063-3.139,0.063c-1.041,0-2.088-0.235-3.14-0.235
			c-1.042,0-2.089,0.144-3.14,0.144c-1.043,0-2.09-0.068-3.141-0.069c-1.043,0-2.09,0.036-3.141,0.036
			c-1.044,0-2.091-0.059-3.142-0.059c-1.044,0-2.091,0.321-3.142,0.321c-1.044,0-2.092,0.064-3.143,0.064
			c-1.044,0-2.092-0.475-3.142-0.475c-1.045,0-2.093-0.013-3.144-0.013c-1.045-0.001-2.093,0.007-3.143,0.007
			c-1.046,0-2.094,0.474-3.144,0.473c-1.046,0-2.094-0.414-3.144-0.414c-1.046,0-2.095,0.033-3.145,0.033
			c-1.044,0-2.091,0.117-3.139,0.116c-1.045,0-2.092,0.021-3.14,0.021c-1.046,0-2.094-0.037-3.142-0.037
			c-1.047-0.001-2.094,0.023-3.143,0.023c-1.047-0.001-2.095,0.03-3.143,0.03s-2.095,0.187-3.144,0.187
			c-1.048,0-2.097-0.264-3.146-0.264s-2.098,0.286-3.147,0.286s-2.098-0.108-3.146-0.108c-1.049,0-2.099-0.194-3.147-0.194
			c-1.05,0-2.099,0.14-3.148,0.14c-1.05,0-2.1,0.12-3.148,0.12c-1.05-0.001-2.1-0.326-3.149-0.326
			c-1.051-0.001-2.101,0.054-3.149,0.054c-1.051-0.001-2.101-0.016-3.15-0.017c-1.051,0-2.102,0.085-3.15,0.084
			c-1.052,0-2.103-0.031-3.151-0.031c-1.052,0-2.103-0.166-3.151-0.166c-1.052-0.001-2.103,0.167-3.151,0.166
			c-1.053,0-2.104,0.167-3.151,0.166c-1.053,0-2.104-0.071-3.151-0.071c-1.053-0.001-2.104-0.225-3.151-0.225
			c-1.051-0.001-2.1,0.158-3.145,0.157c-1.052,0-2.1,0.028-3.145,0.028c-1.052-0.001-2.101-0.208-3.146-0.209
			c-1.053,0-2.101,0.032-3.146,0.031c-1.053,0-2.102-0.076-3.146-0.076c-1.053-0.001-2.102,0.023-3.146,0.022
			c-1.053,0-2.102,0.438-3.146,0.438c-1.054-0.001-2.103-0.457-3.146-0.458c-1.054,0-2.103,0.229-3.146,0.229
			c-1.055-0.001-2.104,0.145-3.146,0.144c-1.055,0-2.104-0.082-3.145-0.082c-1.056-0.001-2.104-0.014-3.146-0.015
			c-1.056,0-2.104-0.266-3.145-0.266c-1.057-0.001-2.105,0.122-3.145,0.121c-1.057,0-2.105-0.134-3.144-0.135
			c-1.058,0-2.105,0.062-3.144,0.062c-1.058-0.001-2.106,0.359-3.144,0.358c-1.059,0-2.107-0.154-3.144-0.154
			c-1.061-0.001-2.109-0.234-3.145-0.234c-1.063-0.001-2.112,0.34-3.147,0.339c-1.064,0-2.114-0.194-3.148-0.194
			c-1.066-0.001-2.115-0.212-3.148-0.212c-1.067-0.001-2.117,0.003-3.148,0.002c-1.069-0.001-2.118,0.324-3.146,0.323
			c-1.07,0-2.119-0.281-3.144-0.281c-1.073-0.001-2.12,0.144-3.141,0.144c-1.077-0.001-2.125,0.101-3.143,0.1
			c-1.083-0.001-2.131-0.058-3.144-0.059c-1.088,0-2.135-0.099-3.139-0.1c-1.099,0-2.147,0.337-3.142,0.337
			c-1.115-0.001-2.163-0.354-3.14-0.354c-1.143-0.001-2.19,0.135-3.138,0.135c-1.215-0.001-2.266,0.023-3.141,0.023
			c-2.045-0.001-1.56-0.126-3.109,0.11C57.12,202.235,56.752,202.298,56.32,201.464z"/>
	</g>
	<g>
		<path class="st0" d="M67.869,188.365c-1.108-1.111,0.264-1.713,0.269-3.283c0.005-1.569-0.023-1.569-0.019-3.14
			c0.004-1.569,0.147-1.569,0.151-3.139c0.004-1.57-0.28-1.571-0.275-3.141c0.004-1.57,0.303-1.569,0.308-3.139
			c0.005-1.571-0.188-1.571-0.183-3.143c0.004-1.571-0.151-1.572-0.147-3.144c0.004-1.573,0.287-1.572,0.292-3.146
			c0.004-1.572,0-1.572,0.004-3.144c0.004-1.572-0.343-1.573-0.338-3.145c0.004-1.57,0.341-1.569,0.346-3.141
			c0.004-1.57-0.235-1.57-0.231-3.141c0.004-1.571,0.077-1.57,0.081-3.142c0.005-1.571,0.035-1.571,0.04-3.144
			s0.211-1.572,0.216-3.145c0.004-1.573-0.039-1.573-0.034-3.146s-0.062-1.572-0.057-3.145c0.004-1.571-0.163-1.571-0.158-3.143
			c0.004-1.571,0.111-1.571,0.116-3.143c0.005-1.572,0.005-1.572,0.01-3.144c0.004-1.573,0.111-1.573,0.115-3.146
			c0.005-1.573-0.111-1.573-0.106-3.146c0.005-1.572,0.08-1.572,0.084-3.144c0.005-1.572-0.333-1.573-0.329-3.145
			c0.004-1.573,0.017-1.573,0.022-3.145c0.004-1.574,0.217-1.573,0.222-3.146c0.005-1.573-0.08-1.573-0.076-3.146
			c0.004-1.572-0.094-1.573-0.089-3.145c0.004-1.573,0.241-1.572,0.246-3.146s-0.158-1.574-0.154-3.147
			c0.005-1.573,0.228-1.572,0.232-3.145c0.005-1.573-0.013-1.573-0.009-3.146c0.004-1.574-0.188-1.574-0.184-3.147
			c0.005-1.573-0.1-1.574-0.095-3.146c0.004-1.574,0.088-1.574,0.093-3.147c0.004-1.573-0.067-1.573-0.063-3.146
			c0.004-1.574,0.098-1.573,0.102-3.146c0.004-1.572-0.091-1.573-0.086-3.145c0.005-1.571,0.046-1.571,0.051-3.142
			c0.005-1.572,0.182-1.571,0.186-3.144c0.004-1.574-0.146-1.574-0.142-3.148c0.005-1.572-0.006-1.572-0.001-3.145
			c0.004-1.574-0.125-1.574-0.121-3.148c0.004-1.573,0.212-1.573,0.217-3.146c0.004-1.575-0.01-1.575-0.006-3.149
			c0.004-1.574-0.121-1.574-0.116-3.148c0.004-1.574,0.24-1.574,0.245-3.148c0.004-1.575-0.024-1.575-0.019-3.15
			c0.004-1.575,0.135-1.575,0.14-3.149c0.004-1.573-0.035-1.573-0.03-3.146c0.004-1.575-0.208-1.576-0.204-3.151
			s-0.05-1.575-0.046-3.15c0.005-1.576,0.037-1.576,0.042-3.151c0.004-1.578,0.295-1.577,0.299-3.155s-1.318-2.077-0.208-3.198
			c1.099-1.109,1.603,0.073,3.164,0.07c1.561-0.003,1.561-0.133,3.121-0.136c1.56-0.002,1.561,0.229,3.121,0.227
			c1.56-0.002,1.559-0.333,3.119-0.336c1.56-0.002,1.56,0.085,3.12,0.082s1.56,0.043,3.12,0.041c1.56-0.003,1.56,0.167,3.12,0.165
			c1.56-0.003,1.561,0.046,3.121,0.043s1.56,0.058,3.121,0.055c1.561-0.003,1.561,0.006,3.122,0.003
			c1.561-0.003,1.56-0.466,3.121-0.468c1.561-0.003,1.561-0.004,3.122-0.007s1.561,0.233,3.121,0.23
			c1.56-0.003,1.561,0.165,3.121,0.162c1.56-0.002,1.56-0.017,3.12-0.02s1.56-0.104,3.12-0.107c1.561-0.003,1.56-0.278,3.12-0.281
			c1.561-0.003,1.561-0.024,3.121-0.027c1.562-0.002,1.562,0.018,3.123,0.015c1.561-0.003,1.562,0.468,3.123,0.465
			c1.561-0.003,1.56-0.189,3.121-0.192s1.56-0.258,3.12-0.26c1.561-0.003,1.561,0.391,3.122,0.388s1.56-0.281,3.121-0.284
			s1.561,0.054,3.122,0.051c1.561-0.002,1.562,0.202,3.123,0.2c1.561-0.003,1.56-0.413,3.121-0.416
			c1.561-0.003,1.561,0.314,3.122,0.311c1.559-0.002,1.559-0.028,3.117-0.031c1.559-0.002,1.559-0.034,3.118-0.037
			c1.56-0.003,1.561,0.201,3.121,0.198c1.561-0.003,1.561-0.036,3.122-0.039c1.561-0.003,1.56-0.316,3.121-0.319
			c1.56-0.003,1.56-0.139,3.119-0.142c1.56-0.002,1.56,0.016,3.119,0.013c1.559-0.003,1.56,0.371,3.118,0.369
			c1.559-0.003,1.558-0.23,3.117-0.233s1.559,0.251,3.118,0.249s1.558-0.39,3.117-0.393c1.56-0.002,1.56,0.313,3.12,0.31
			c1.561-0.003,1.56-0.309,3.121-0.311c1.562-0.003,1.563,0.39,3.125,0.387c1.561-0.002,1.561-0.209,3.122-0.212
			c1.56-0.003,1.56-0.097,3.12-0.1c1.56-0.003,1.56,0.07,3.119,0.067s1.56-0.128,3.119-0.131c1.56-0.003,1.56,0.173,3.119,0.17
			c1.561-0.002,1.561,0.126,3.121,0.124c1.562-0.003,1.562-0.357,3.123-0.359c1.562-0.003,1.562,0.244,3.123,0.241
			c1.561-0.003,1.561-0.282,3.121-0.285c1.56-0.002,1.56,0.169,3.12,0.167c1.561-0.003,1.561,0.211,3.121,0.208
			s1.561-0.159,3.121-0.162c1.562-0.002,1.563,0.036,3.124,0.033s1.562,0.143,3.123,0.14s1.562-0.118,3.122-0.121
			s1.561-0.097,3.121-0.099c1.562-0.003,1.562,0.273,3.123,0.271c1.563-0.003,1.563-0.255,3.125-0.258
			c1.561-0.003,1.561-0.074,3.122-0.077c1.561-0.003,1.561,0.046,3.122,0.043s1.562-0.098,3.124-0.101
			c1.562-0.003,1.562-0.08,3.124-0.083c1.562-0.003,1.562,0.066,3.123,0.063c1.562-0.002,1.562,0.133,3.124,0.13
			c1.563-0.003,1.563,0.202,3.125,0.199c1.562-0.002,1.562-0.406,3.123-0.409c1.563-0.003,1.563-0.002,3.125-0.005
			c1.562-0.003,1.562,0.129,3.124,0.126c1.563-0.002,1.563,0.272,3.125,0.27c1.562-0.003,1.562,0.03,3.122,0.027
			s1.561-0.039,3.12-0.042c1.561-0.003,1.561-0.013,3.121-0.016c1.563-0.003,1.563-0.127,3.126-0.13
			c1.562-0.002,1.561-0.114,3.122-0.117c1.563-0.002,1.563,0.18,3.125,0.177s1.562-0.376,3.124-0.379
			c1.563-0.002,1.563,0.409,3.126,0.406c1.563-0.002,1.563,0.01,3.125,0.007c1.563-0.003,1.563-0.028,3.127-0.031
			s1.563,0.071,3.127,0.068c1.564-0.002,1.564-0.124,3.128-0.126c1.563-0.003,1.563,0.069,3.124,0.066
			c1.564-0.003,1.564-0.146,3.128-0.148c1.564-0.003,1.563-0.167,3.128-0.17s1.564,0.07,3.129,0.067
			c1.566-0.002,1.566,0.049,3.134,0.046s2.067-1.155,3.174-0.046c1.111,1.116-0.031,1.615-0.031,3.19s0.116,1.575,0.116,3.149
			s-0.193,1.574-0.193,3.148s0.042,1.574,0.042,3.148c0,1.575,0.032,1.575,0.032,3.149c0,1.575,0.014,1.575,0.014,3.15
			c0,1.576,0.058,1.576,0.058,3.152c0,1.578-0.182,1.578-0.182,3.155c0,1.577,0.111,1.577,0.111,3.153
			c0,1.576-0.234,1.576-0.234,3.151c0,1.575,0.035,1.575,0.035,3.15s0.376,1.575,0.376,3.15s-0.019,1.575-0.019,3.151
			s-0.076,1.576-0.076,3.152c0,1.577-0.278,1.577-0.278,3.154s0.239,1.577,0.239,3.155c0,1.577,0.104,1.577,0.104,3.153
			s-0.303,1.576-0.303,3.152s-0.091,1.576-0.091,3.152s0.378,1.576,0.378,3.153c0,1.578,0.098,1.578,0.098,3.155
			s-0.439,1.578-0.439,3.155c0,1.576,0.111,1.576,0.111,3.153s-0.058,1.577-0.058,3.153c0,1.577,0.056,1.577,0.056,3.154
			c0,1.578-0.094,1.578-0.094,3.156c0,1.577,0.167,1.577,0.167,3.154s-0.003,1.577-0.003,3.154c0,1.578,0.16,1.578,0.16,3.155
			c0,1.578-0.074,1.578-0.074,3.156c0,1.577-0.045,1.577-0.045,3.154s-0.031,1.577-0.031,3.155c0,1.579-0.006,1.579-0.006,3.157
			c0,1.577-0.091,1.577-0.091,3.155c0,1.578,0.171,1.578,0.171,3.156c0,1.578-0.025,1.578-0.025,3.156s0.015,1.578,0.015,3.156
			c0,1.576,0.148,1.576,0.148,3.153c0,1.575-0.4,1.575-0.4,3.151s0.226,1.576,0.226,3.153c0,1.578,0.109,1.578,0.109,3.156
			c0,1.577-0.362,1.577-0.362,3.153c0,1.578,0.327,1.578,0.327,3.157c0,1.577-0.31,1.577-0.31,3.155
			c0,1.579,0.189,1.579,0.189,3.158c0,1.578,0.25,1.578,0.25,3.156c0,1.579-0.187,1.579-0.187,3.158c0,1.58,0.207,1.58,0.207,3.159
			s-0.266,1.579-0.266,3.159c0,1.578,0.088,1.578,0.088,3.155c0,1.579-0.221,1.579-0.221,3.159s0.239,1.58,0.239,3.159
			c0,1.58-0.241,1.58-0.241,3.16c0,1.583,0.178,1.583,0.178,3.166s0.991,1.944-0.121,3.07c-1.1,1.112-1.469-0.093-3.032-0.093
			s-1.563,0.092-3.127,0.092s-1.563,0.222-3.126,0.222s-1.563-0.176-3.126-0.176c-1.563,0-1.563,0.276-3.125,0.276
			s-1.563-0.036-3.125-0.036c-1.563,0-1.563-0.432-3.126-0.432s-1.563,0.206-3.125,0.206c-1.563,0-1.563,0.239-3.127,0.239
			s-1.563-0.218-3.127-0.218c-1.564,0-1.564,0.111-3.128,0.111s-1.563,0.104-3.127,0.104s-1.563-0.407-3.127-0.407
			s-1.563,0.079-3.126,0.079s-1.563,0.28-3.125,0.28s-1.563-0.228-3.126-0.228s-1.563,0.087-3.126,0.087
			c-1.563,0-1.563,0.032-3.127,0.032c-1.564,0-1.564-0.16-3.128-0.16s-1.563,0.027-3.128,0.027c-1.563,0-1.563-0.037-3.127-0.037
			c-1.563,0-1.563,0.028-3.126,0.028s-1.563,0.159-3.126,0.159c-1.563,0-1.563,0.041-3.127,0.041s-1.563-0.077-3.127-0.077
			c-1.564,0-1.564,0.182-3.128,0.182s-1.563-0.35-3.127-0.35s-1.563-0.049-3.127-0.049c-1.562,0-1.562,0.219-3.123,0.219
			s-1.562-0.246-3.123-0.246c-1.563,0-1.563,0.068-3.126,0.068c-1.563,0-1.563,0.207-3.127,0.207c-1.564,0-1.564,0.069-3.128,0.069
			c-1.563,0-1.563-0.073-3.125-0.073c-1.562,0-1.562-0.157-3.124-0.157c-1.562,0-1.562,0.112-3.123,0.112s-1.562,0.094-3.123,0.094
			c-1.561,0-1.561-0.167-3.122-0.167s-1.562,0.155-3.124,0.155s-1.563-0.031-3.125-0.031s-1.563-0.057-3.126-0.057
			c-1.564,0-1.564-0.184-3.129-0.184c-1.563,0-1.563,0.421-3.128,0.421c-1.563,0-1.563-0.194-3.125-0.194
			c-1.563,0-1.563-0.19-3.125-0.19c-1.562,0-1.562,0.341-3.125,0.341s-1.563-0.118-3.125-0.118c-1.563,0-1.563,0.077-3.126,0.077
			c-1.564,0-1.564,0.023-3.128,0.023c-1.564,0-1.564-0.013-3.129-0.013c-1.563,0-1.563-0.006-3.127-0.006
			c-1.563,0-1.563-0.185-3.126-0.185s-1.563-0.097-3.126-0.097c-1.564,0-1.564-0.024-3.127-0.024c-1.564,0-1.564,0.293-3.129,0.293
			c-1.564,0-1.564-0.357-3.129-0.357c-1.563,0-1.563,0.057-3.127,0.057s-1.563,0.162-3.127,0.162c-1.564,0-1.564-0.074-3.128-0.074
			c-1.565,0-1.565,0.093-3.13,0.093c-1.564,0-1.564-0.179-3.128-0.179c-1.564,0-1.564-0.079-3.128-0.079
			c-1.564,0-1.564,0.044-3.129,0.044c-1.565,0-1.565,0.187-3.13,0.187c-1.564,0-1.564,0.023-3.128,0.023s-1.564-0.111-3.129-0.111
			s-1.565,0.23-3.13,0.23c-1.564,0-1.564-0.317-3.129-0.317s-1.565,0.255-3.13,0.255c-1.565,0-1.565-0.038-3.13-0.038
			s-1.565,0.169-3.13,0.169c-1.564,0-1.564-0.047-3.128-0.047c-1.563,0-1.563-0.155-3.125-0.155c-1.564,0-1.564,0.032-3.127,0.032
			c-1.565,0-1.565-0.28-3.131-0.28c-1.563,0-1.563,0.413-3.127,0.413c-1.566,0-1.566-0.277-3.131-0.277
			c-1.564,0-1.564-0.145-3.129-0.145c-1.566,0-1.566,0.108-3.132,0.108c-1.565,0-1.565-0.043-3.13-0.043
			c-1.566,0-1.566,0.346-3.132,0.346c-1.567,0-1.567,0.021-3.133,0.021s-1.566-0.096-3.133-0.096c-1.565,0-1.565-0.185-3.13-0.185
			c-1.566,0-1.566-0.095-3.133-0.095c-1.567,0-1.567-0.054-3.134-0.054s-1.567,0.48-3.134,0.48c-1.57,0-1.605-0.568-3.133-0.208
			C69.449,188.656,68.977,189.478,67.869,188.365z"/>
	</g>
	<g>
		<path class="st0" d="M209.991,8.076c0,1.127-1.002,2.009-2.13,2.009c-1.127,0-1.99-0.882-1.99-2.009
			c0-1.128,0.863-2.282,1.99-2.282C208.989,5.793,209.991,6.948,209.991,8.076z"/>
	</g>
	<g>
		<path class="st0" d="M355.9,201.479c2.266,0.097,3.693,0.242,4.402-0.174s0.458-1.075,1.406-1.327
			c1.833-0.487,3.315-0.058,3.815-0.017c0.068,0.006,0.926,0.815,2.499,1.884c0.726,0.492,1.619,1.027,2.589,1.694
			c0.782,0.537,1.646,1.11,2.56,1.742c0.805,0.557,1.679,1.114,2.567,1.732c0.817,0.567,1.552,1.321,2.427,1.931
			c0.824,0.576,1.702,1.124,2.567,1.73c0.83,0.582,1.702,1.141,2.561,1.744c0.835,0.588,1.711,1.141,2.563,1.741
			c0.839,0.593,1.847,0.958,2.693,1.558c0.842,0.597,1.697,1.182,2.538,1.779c0.846,0.603,1.433,1.563,2.269,2.16
			c0.85,0.607,1.804,1.054,2.635,1.65c0.854,0.613,1.773,1.111,2.596,1.707c0.857,0.62,1.618,1.339,2.433,1.933
			c0.861,0.629,1.641,1.314,2.441,1.904c0.873,0.644,1.636,1.354,2.421,1.94c0.89,0.666,1.971,0.958,2.724,1.535
			c0.935,0.717,1.531,1.642,2.212,2.192c1.41,1.142,2.102,1.765,2.102,1.978c0,0.454,0.198,1.58,0.198,2.968
			c0,0.916-0.024,1.945-0.024,2.97c0,1.035-0.129,2.066-0.129,2.972c0,1.706,0.868,1.653,0.16,2.956
			c-0.686,1.26-1.52,1.397-2.27,1.647c-0.29,0.097-1.32,0.884-2.611,1.655c-0.85,0.508-1.841,0.976-2.712,1.452
			c-1.226,0.671-2.272,1.088-2.765,1.088c-0.07,0-1.144,0.071-3.119,0.07c-0.869-0.001-1.911,0.237-3.119,0.236
			c-0.941-0.001-1.981-0.355-3.119-0.355c-0.97-0.002-2.01,0.411-3.118,0.411c-0.986-0.001-2.026-0.257-3.118-0.258
			c-0.996,0-2.036,0.102-3.117,0.101c-1.004,0-2.044-0.244-3.118-0.245c-1.01-0.001-2.05,0.119-3.119,0.118
			c-1.014-0.001-2.054,0.038-3.12,0.038c-1.017-0.001-2.057,0.207-3.12,0.206c-1.019,0-2.059,0.048-3.119,0.047
			c-1.019-0.001-2.057-0.171-3.113-0.172c-1.021-0.001-2.06,0.163-3.114,0.163c-1.022-0.001-2.061-0.299-3.114-0.3
			c-1.024,0-2.063,0.206-3.115,0.205c-1.025-0.001-2.064,0.056-3.116,0.056c-1.026-0.001-2.064-0.223-3.115-0.224
			c-1.028,0-2.067-0.048-3.117-0.049c-1.028-0.001-2.067,0.161-3.117,0.161c-1.029-0.001-2.068-0.072-3.117-0.073
			c-1.029-0.001-2.069,0.134-3.117,0.133c-1.031-0.001-2.07-0.163-3.118-0.164c-1.031,0-2.07,0.09-3.118,0.089
			c-1.031-0.001-2.071-0.209-3.118-0.209c-1.032-0.001-2.072-0.091-3.118-0.092c-1.033-0.001-2.072,0.456-3.119,0.456
			c-1.033-0.001-2.072-0.028-3.119-0.029c-1.033-0.001-2.073-0.314-3.119-0.314c-1.033-0.001-2.073,0.229-3.118,0.228
			c-1.034-0.001-2.074-0.063-3.12-0.063c-1.034-0.001-2.074,0.145-3.119,0.144c-1.035-0.001-2.074-0.083-3.119-0.084
			c-1.035,0-2.075-0.262-3.12-0.263c-1.035-0.001-2.075,0.036-3.119,0.035c-1.036-0.001-2.075,0.296-3.12,0.295
			c-1.035-0.001-2.075-0.133-3.119-0.134c-1.036-0.001-2.076-0.266-3.12-0.266c-1.036-0.001-2.076,0.231-3.12,0.23
			c-1.034-0.001-2.072-0.188-3.113-0.188c-1.035-0.001-2.073,0.27-3.114,0.27c-1.035-0.002-2.073-0.255-3.115-0.256
			c-1.035-0.001-2.074-0.029-3.115-0.03c-1.036-0.001-2.074-0.038-3.115-0.039c-1.036,0-2.075,0.114-3.116,0.113
			c-1.037-0.001-2.075,0.017-3.117,0.016c-1.036-0.001-2.075,0.28-3.116,0.279c-1.037-0.001-2.077-0.207-3.118-0.208
			c-1.037,0-2.076-0.121-3.117-0.121c-1.038-0.002-2.077,0.335-3.118,0.334c-1.038-0.001-2.078-0.083-3.119-0.084
			c-1.038-0.001-2.077-0.261-3.118-0.262c-1.039-0.001-2.079,0.276-3.12,0.275c-1.038-0.001-2.078-0.362-3.119-0.363
			c-1.039-0.001-2.079,0.246-3.12,0.245c-1.038-0.001-2.076-0.156-3.116-0.157c-1.038-0.001-2.077,0.19-3.117,0.189
			c-1.038-0.001-2.078-0.179-3.118-0.18c-1.038-0.001-2.078,0.043-3.118,0.042s-2.079,0.022-3.12,0.021
			c-1.039-0.001-2.079,0.007-3.12,0.006c-1.04-0.001-2.08,0.224-3.121,0.223s-2.081-0.095-3.122-0.096s-2.082-0.154-3.123-0.155
			s-2.083,0.02-3.124,0.019s-2.083,0.172-3.124,0.171c-1.042-0.001-2.083-0.062-3.125-0.063c-1.042-0.001-2.084-0.252-3.125-0.253
			c-1.042-0.001-2.084,0.089-3.125,0.088c-1.043-0.001-2.085,0.084-3.126,0.083c-1.043-0.001-2.085-0.057-3.127-0.059
			c-1.043-0.001-2.085,0.097-3.126,0.096c-1.044-0.001-2.086-0.235-3.127-0.236c-1.044-0.001-2.086,0.004-3.128,0.003
			c-1.044-0.002-2.086,0.256-3.128,0.255c-1.042-0.001-2.083,0.09-3.123,0.088c-1.042,0-2.083-0.474-3.122-0.475
			c-1.042-0.001-2.083,0.073-3.123,0.072c-1.042-0.001-2.083-0.04-3.122-0.042c-1.043-0.001-2.084,0.374-3.123,0.373
			c-1.042-0.001-2.083-0.133-3.122-0.135c-1.043-0.001-2.083-0.183-3.122-0.184c-1.043-0.001-2.083,0.114-3.122,0.113
			c-1.043-0.001-2.083-0.123-3.122-0.124c-1.043-0.002-2.084,0.377-3.122,0.376c-1.043-0.001-2.084-0.285-3.122-0.286
			c-1.043-0.001-2.084,0.249-3.122,0.247c-1.044-0.001-2.084-0.267-3.121-0.268c-1.044-0.002-2.084,0.025-3.121,0.024
			c-1.044-0.002-2.085-0.005-3.122-0.006c-1.044-0.002-2.085,0.241-3.122,0.24c-1.044-0.002-2.085-0.218-3.121-0.219
			c-1.045-0.001-2.086-0.158-3.122-0.159c-1.045-0.002-2.086,0.064-3.122,0.063c-1.046-0.002-2.087,0.325-3.123,0.324
			c-1.046-0.002-2.086-0.434-3.122-0.436c-1.046-0.001-2.087,0.151-3.123,0.15c-1.047-0.001-2.088,0.047-3.123,0.046
			c-1.047-0.002-2.088-0.124-3.123-0.126c-1.047-0.001-2.088,0.247-3.123,0.246c-1.048-0.002-2.089,0.098-3.124,0.096
			c-1.048-0.001-2.088-0.172-3.122-0.172c-1.048-0.002-2.089-0.312-3.122-0.313c-1.049-0.002-2.091,0.408-3.124,0.406
			c-1.049-0.002-2.089-0.415-3.121-0.417c-1.05-0.002-2.09,0.092-3.122,0.09c-1.05-0.002-2.091-0.082-3.121-0.084
			c-1.051-0.002-2.091,0.157-3.121,0.156c-1.051-0.002-2.091-0.115-3.119-0.117c-1.052-0.002-2.093,0.229-3.121,0.228
			c-1.054-0.002-2.094-0.138-3.121-0.14c-1.055-0.002-2.095-0.017-3.121-0.019c-1.058-0.002-2.099,0.05-3.125,0.048
			c-1.059-0.002-2.101,0.11-3.125,0.108c-1.061-0.002-2.102-0.18-3.125-0.183c-1.063-0.002-2.104,0.284-3.125,0.282
			c-1.063-0.003-2.104-0.156-3.121-0.159c-1.065-0.002-2.105,0.121-3.118,0.119c-1.07-0.003-2.109-0.352-3.119-0.354
			c-1.075-0.003-2.116,0.021-3.12,0.019c-1.081-0.003-2.121,0.372-3.117,0.369c-1.092-0.003-2.132-0.074-3.118-0.077
			c-1.107-0.004-2.146-0.255-3.116-0.258c-1.136-0.005-2.175-0.053-3.114-0.057c-1.207-0.006-2.249,0.094-3.116,0.088
			c-1.981-0.013-3.017-0.147-3.075-0.16c-0.35-0.078-1.489-0.293-2.853-0.834c-0.854-0.336-1.735-0.906-2.677-1.334
			c-0.947-0.43-1.836-0.93-2.631-1.379c-1.213-0.686-2.454-1.085-2.604-1.607c-0.177-0.618-0.41-2.006-0.632-3.552
			c-0.167-1.155-0.297-2.435-0.381-3.579c-0.122-1.657,0.257-2.977,0.543-3.454c0.096-0.159,0.653-1.138,2.114-2.189
			c0.708-0.51,1.776-0.798,2.737-1.473c0.773-0.543,1.628-1.124,2.539-1.756c0.8-0.556,1.703-1.064,2.592-1.677
			c0.815-0.563,1.531-1.34,2.407-1.941c0.826-0.567,1.677-1.147,2.546-1.743c0.833-0.569,1.773-1.021,2.638-1.611
			c0.839-0.573,1.579-1.319,2.439-1.905c0.845-0.575,1.795-1.011,2.652-1.594c0.849-0.577,1.528-1.414,2.381-1.993
			c0.854-0.58,1.931-0.829,2.781-1.406c0.858-0.582,1.629-1.285,2.476-1.859c0.864-0.585,1.691-1.206,2.534-1.776
			c0.869-0.59,1.723-1.172,2.562-1.739c0.875-0.593,1.663-1.271,2.495-1.834c0.881-0.597,1.742-1.164,2.563-1.72
			c0.896-0.606,1.718-1.237,2.526-1.785c0.918-0.621,1.811-1.148,2.593-1.68c0.971-0.658,1.868-1.185,2.589-1.677
			c1.467-1,2.372-1.627,2.529-1.752c1.25-1,1.497-0.517,2.205-0.142s2.215,0.995,3.34,0.953c0.066-0.003,1.153-0.178,3.138-0.18
			c0.875-0.001,1.924,0.107,3.138,0.106c0.947-0.001,1.994,0.301,3.136,0.3c0.977-0.001,2.024-0.091,3.137-0.092
			c0.993,0,2.039-0.025,3.136-0.025c1.003-0.001,2.049-0.195,3.135-0.196c1.011,0,2.057,0.009,3.137,0.009
			c1.016,0,2.061-0.023,3.136-0.023c1.019,0,2.064-0.063,3.134-0.063c1.022,0,2.067-0.001,3.134-0.001
			c1.024,0,2.069,0.139,3.134,0.139c1.027,0,2.072-0.051,3.134-0.052c1.028,0,2.073-0.003,3.134-0.003
			c1.03-0.001,2.075-0.075,3.134-0.075c1.031,0,2.076-0.082,3.134-0.082c1.032,0,2.078,0.282,3.134,0.282
			c1.034-0.001,2.079-0.239,3.135-0.239c1.034,0,2.08,0.345,3.135,0.344c1.036,0,2.081-0.129,3.135-0.129
			c1.036,0,2.082,0.205,3.136,0.205c1.037,0,2.082-0.127,3.136-0.127c1.038,0,2.083-0.059,3.136-0.059
			c1.038,0,2.083,0.106,3.136,0.106c1.039,0,2.084-0.303,3.136-0.303c1.039,0,2.085,0.034,3.137,0.034
			c1.04,0,2.085,0.215,3.137,0.214c1.039,0,2.083-0.155,3.133-0.155c1.04,0,2.084,0.229,3.134,0.229c1.04,0,2.084-0.09,3.134-0.09
			c1.04,0,2.085,0.147,3.134,0.147c1.041,0,2.086-0.272,3.135-0.272c1.042,0,2.087,0.077,3.136,0.077c1.042,0,2.087-0.01,3.136-0.01
			c1.042,0,2.088,0.013,3.136,0.013c1.043,0,2.088-0.032,3.137-0.032c1.043,0,2.089,0.064,3.137,0.064
			c1.043,0,2.089-0.076,3.137-0.077c1.043,0,2.089,0.091,3.138,0.091c1.044,0,2.09-0.085,3.138-0.085
			c1.042,0,2.086-0.027,3.132-0.027c1.043-0.001,2.087-0.055,3.134-0.055c1.043,0,2.088,0.13,3.134,0.13
			c1.044,0,2.09,0.094,3.136,0.094c1.045,0,2.09-0.008,3.137-0.009c1.045,0,2.09-0.072,3.136-0.072c1.045,0,2.092-0.14,3.138-0.14
			s2.093,0.274,3.141,0.274c1.046,0,2.093,0.002,3.14,0.001c1.047,0,2.094-0.392,3.141-0.392c1.048,0,2.095,0.363,3.142,0.363
			c1.048,0,2.096-0.351,3.143-0.351c1.048,0,2.096-0.009,3.143-0.01c1.049,0,2.097,0.09,3.144,0.09c1.049,0,2.097,0.127,3.144,0.127
			c1.05,0,2.098,0.152,3.145,0.152c1.05,0,2.098-0.057,3.144-0.057c1.051,0,2.099-0.353,3.146-0.353c1.05,0,2.099,0.08,3.145,0.079
			c1.051,0,2.1,0.023,3.146,0.023c1.051,0,2.1-0.024,3.146-0.024c1.051,0,2.1-0.082,3.145-0.082c1.052,0,2.101,0.434,3.146,0.434
			c1.05,0,2.097-0.363,3.14-0.363c1.05,0,2.097,0.085,3.14,0.085c1.05,0,2.097,0.024,3.139,0.024
			c1.051-0.001,2.098,0.129,3.14,0.129c1.052,0,2.098-0.305,3.14-0.305c1.052,0,2.099,0.263,3.14,0.263
			c1.052,0,2.099,0.213,3.14,0.213c1.053,0,2.1-0.271,3.14-0.271c1.053,0,2.1-0.181,3.14-0.181c1.054,0,2.101,0.333,3.14,0.333
			c1.054,0,2.101,0.05,3.14,0.05c1.054,0,2.101,0.014,3.139,0.014c1.055,0,2.101-0.38,3.139-0.38c1.055,0,2.102,0.307,3.139,0.307
			c1.056,0,2.102-0.244,3.138-0.244c1.056,0,2.102,0.165,3.137,0.165c1.058,0,2.104-0.199,3.138-0.199
			c1.059,0,2.105,0.061,3.139,0.061c1.061,0,2.108,0.216,3.142,0.216c1.063,0,2.109-0.211,3.143-0.211
			c1.063,0,2.111-0.14,3.142-0.14c1.065,0,2.113,0.171,3.142,0.171c1.067-0.001,2.114,0.262,3.141,0.262
			c1.069,0,2.115-0.373,3.139-0.373c1.07,0,2.115-0.05,3.135-0.05c1.075,0,2.121,0.203,3.137,0.203c1.081,0,2.127,0.258,3.138,0.258
			c1.086,0,2.131-0.257,3.134-0.257c1.097,0,2.143-0.033,3.136-0.033c1.112,0,2.158,0.259,3.135,0.259
			c1.141,0,2.186-0.43,3.131-0.43c1.213,0,2.262,0.028,3.135,0.028C354.806,201.469,354.338,201.412,355.9,201.479z"/>
	</g>
	<g>
		<path class="st0" d="M71.926,217.579c0.919-1.167,1.085-0.626,2.394-1.826c0.646-0.592,1.316-1.366,2.12-2.094
			c0.71-0.644,1.435-1.348,2.189-2.021c0.753-0.673,1.514-1.339,2.238-1.97c0.816-0.711,1.487-1.498,2.167-2.06
			c1.167-0.964,2.238-1.307,2.58-1.421c0.096-0.032,1.123-0.205,3.067-0.24c0.874-0.017,1.922,0.08,3.131,0.063
			c0.945-0.014,1.985-0.321,3.123-0.335c0.975-0.011,2.019,0.089,3.128,0.077c0.99-0.01,2.031-0.192,3.123-0.202
			c1.001-0.01,2.044,0.024,3.126,0.015c1.008-0.009,2.054,0.347,3.13,0.338c1.014-0.009,2.056-0.239,3.127-0.248
			c1.019-0.008,2.061-0.195,3.128-0.203c1.022-0.008,2.066,0.062,3.131,0.054c1.024-0.007,2.068-0.072,3.13-0.08
			c1.026-0.007,2.073,0.36,3.134,0.354c1.028-0.007,2.071-0.009,3.13-0.016c1.029-0.007,2.071-0.358,3.128-0.365
			c1.03-0.007,2.075,0.167,3.131,0.161c1.032-0.007,2.074-0.173,3.129-0.179c1.033-0.007,2.079,0.335,3.132,0.329
			c1.034-0.007,2.075-0.405,3.127-0.411c1.035-0.006,2.079,0.194,3.131,0.188c1.035-0.006,2.08,0.177,3.131,0.171
			c1.036-0.006,2.078-0.132,3.128-0.138c1.037-0.006,2.081,0.133,3.13,0.127c1.037-0.006,2.079-0.315,3.128-0.321
			c1.038-0.005,2.081-0.077,3.13-0.082c1.038-0.006,2.083,0.244,3.131,0.239c1.039-0.006,2.083-0.079,3.131-0.084
			c1.039-0.006,2.083-0.048,3.13-0.053c1.04-0.005,2.084,0.139,3.132,0.134c1.041-0.005,2.082-0.36,3.129-0.365
			c1.041-0.005,2.084,0.056,3.131,0.051c1.041-0.005,2.085,0.063,3.132,0.059c1.039-0.005,2.08-0.085,3.124-0.089
			c1.04-0.005,2.083,0.075,3.126,0.071c1.041-0.005,2.084,0.231,3.128,0.227c1.041-0.004,2.084-0.01,3.128-0.014
			c1.042-0.004,2.083-0.417,3.127-0.421c1.042-0.004,2.086,0.198,3.129,0.194s2.087-0.053,3.131-0.057
			c1.044-0.004,2.088-0.078,3.133-0.082c1.045-0.004,2.091-0.036,3.136-0.04s2.09,0.105,3.134,0.102
			c1.045-0.004,2.09,0.024,3.134,0.021c1.046-0.004,2.09-0.255,3.134-0.259c1.046-0.004,2.091,0.004,3.135,0
			c1.047-0.003,2.093,0.26,3.136,0.256c1.048-0.003,2.092-0.204,3.135-0.208c1.048-0.003,2.094,0.281,3.137,0.278
			c1.048-0.003,2.095,0.063,3.137,0.06c1.049-0.003,2.092-0.414,3.134-0.417c1.049-0.003,2.096,0.214,3.137,0.211
			c1.049-0.003,2.095-0.14,3.136-0.143c1.05-0.003,2.095,0.213,3.136,0.21c1.05-0.002,2.095-0.246,3.135-0.249
			c1.05-0.003,2.095,0.271,3.135,0.268c1.05-0.002,2.095-0.251,3.134-0.253c1.051-0.002,2.096,0.321,3.134,0.319
			c1.051-0.002,2.095-0.224,3.132-0.227c1.052-0.002,2.096-0.03,3.132-0.032c1.052-0.002,2.096,0.027,3.131,0.025
			c1.052-0.002,2.095-0.243,3.13-0.244c1.053-0.002,2.097,0.445,3.131,0.444c1.054-0.002,2.099-0.3,3.132-0.301
			c1.056-0.001,2.101-0.022,3.133-0.023c1.058-0.001,2.103,0.014,3.134,0.014c1.059-0.001,2.104,0.18,3.135,0.179
			c1.06,0,2.104-0.17,3.134-0.17c1.062,0,2.106,0.034,3.134,0.034c1.063,0,2.107,0.079,3.132,0.079
			c1.064,0.001,2.108-0.165,3.13-0.163c1.066,0,2.108,0.298,3.126,0.299c1.071,0.002,2.115-0.146,3.129-0.144
			c1.077,0.002,2.12-0.141,3.13-0.138c1.082,0.003,2.124,0.066,3.124,0.069c1.094,0.004,2.137,0.057,3.128,0.061
			c1.108,0.005,2.151,0.103,3.125,0.108c1.137,0.007,2.18-0.053,3.124-0.044c1.206,0.011,2.254-0.215,3.125-0.201
			c1.945,0.029,3.07,0.204,3.156,0.247c0.31,0.155,1.252,0.824,2.412,1.826c0.671,0.58,1.405,1.302,2.21,2.033
			c0.717,0.651,1.33,1.49,2.07,2.188c0.744,0.7,1.691,1.189,2.38,1.867c0.782,0.77,1.204,1.794,1.807,2.439
			c1.135,1.214,1.761,1.909,1.675,2.166c-0.021,0.063-0.875,0.132-2.889,0.196c-0.876,0.027-1.923,0.202-3.139,0.23
			c-0.95,0.021-2.004-0.121-3.149-0.1c-0.978,0.02-2.026-0.057-3.14-0.038c-0.994,0.017-2.041,0.123-3.139,0.141
			c-1.004,0.015-2.053,0.015-3.142,0.03c-1.013,0.014-2.062-0.011-3.144,0.004c-1.019,0.013-2.068-0.027-3.146-0.014
			c-1.023,0.013-2.071,0.03-3.145,0.043c-1.025,0.012-2.071,0.324-3.142,0.337c-1.028,0.012-2.079-0.286-3.146-0.274
			c-1.03,0.012-2.076,0.245-3.142,0.256c-1.032,0.011-2.078,0.239-3.142,0.25c-1.033,0.011-2.082,0.004-3.144,0.015
			c-1.035,0.01-2.087-0.354-3.147-0.345c-1.035,0.01-2.08,0.401-3.141,0.411c-1.036,0.009-2.085,0.034-3.144,0.044
			c-1.038,0.009-2.087-0.158-3.146-0.149c-1.038,0.009-2.089-0.12-3.146-0.111c-1.04,0.009-2.088,0.012-3.145,0.021
			c-1.04,0.009-2.086,0.316-3.142,0.325c-1.041,0.009-2.093-0.318-3.147-0.309c-1.041,0.008-2.089-0.03-3.143-0.022
			c-1.042,0.009-2.089,0.131-3.143,0.139c-1.042,0.008-2.09,0.108-3.144,0.116c-1.042,0.008-2.09-0.051-3.144-0.043
			c-1.043,0.008-2.09,0.12-3.143,0.127c-1.044,0.008-2.096-0.313-3.147-0.305c-1.045,0.007-2.09,0.419-3.143,0.426
			c-1.044,0.008-2.095-0.312-3.146-0.305c-1.045,0.008-2.094,0.059-3.146,0.065c-1.046,0.007-2.092,0.381-3.143,0.389
			c-1.046,0.007-2.096-0.129-3.147-0.122c-1.046,0.007-2.096-0.13-3.146-0.123c-1.047,0.007-2.096,0.042-3.146,0.049
			c-1.045,0.006-2.094-0.214-3.143-0.207c-1.045,0.006-2.092,0.055-3.141,0.062c-1.047,0.006-2.095,0.089-3.144,0.095
			c-1.047,0.006-2.095-0.09-3.144-0.084c-1.048,0.006-2.094,0.333-3.144,0.339c-1.047,0.006-2.096,0.03-3.145,0.037
			c-1.048,0.006-2.099-0.134-3.147-0.128c-1.05,0.006-2.099,0.146-3.149,0.152s-2.1-0.139-3.149-0.133
			c-1.05,0.006-2.1-0.081-3.149-0.076c-1.05,0.006-2.099,0.271-3.148,0.276c-1.051,0.006-2.102-0.14-3.151-0.135
			c-1.051,0.006-2.102-0.048-3.151-0.042c-1.052,0.006-2.102,0.017-3.151,0.022c-1.052,0.005-2.103-0.008-3.151-0.002
			c-1.052,0.005-2.103,0.143-3.151,0.148c-1.053,0.005-2.103,0.192-3.151,0.197c-1.053,0.005-2.105-0.114-3.153-0.109
			c-1.054,0.005-2.104,0.099-3.152,0.104c-1.054,0.005-2.106-0.252-3.154-0.247c-1.054,0.005-2.104,0.083-3.152,0.088
			c-1.054,0.005-2.106-0.166-3.153-0.161c-1.055,0.005-2.105,0.139-3.151,0.144c-1.056,0.004-2.106-0.006-3.152-0.002
			c-1.055,0.005-2.104,0.27-3.15,0.274c-1.056,0.004-2.107-0.253-3.152-0.249c-1.055,0.004-2.102,0.3-3.145,0.304
			c-1.055,0.005-2.105-0.135-3.147-0.131c-1.055,0.004-2.105-0.217-3.147-0.213c-1.056,0.004-2.104,0.186-3.146,0.188
			c-1.057,0.004-2.106-0.21-3.147-0.206c-1.058,0.003-2.106,0.227-3.146,0.229c-1.058,0.004-2.106-0.012-3.146-0.009
			c-1.059,0.003-2.107,0.208-3.145,0.211c-1.06,0.003-2.11-0.372-3.148-0.369c-1.061,0.004-2.11,0.111-3.147,0.114
			c-1.063,0.002-2.113-0.097-3.149-0.094c-1.064,0.003-2.113,0.339-3.148,0.341c-1.065,0.003-2.116,0.059-3.149,0.061
			c-1.067,0.003-2.117-0.018-3.149-0.016c-1.069,0.002-2.119-0.385-3.148-0.383c-1.07,0.002-2.119,0.126-3.145,0.128
			c-1.072,0.001-2.12,0.244-3.141,0.246c-1.077,0.001-2.126-0.055-3.145-0.055c-1.083,0.001-2.131-0.069-3.145-0.068
			c-1.088,0-2.135-0.263-3.14-0.263c-1.099-0.001-2.147,0.448-3.143,0.447c-1.114-0.001-2.162-0.177-3.141-0.18
			c-1.143-0.003-2.191-0.003-3.139-0.007c-1.213-0.006-2.264-0.003-3.138-0.011c-1.995-0.018-3.061-0.151-3.108-0.183
			C71.322,218.904,71.33,218.337,71.926,217.579z"/>
	</g>
	<g>
		<path class="st0" d="M154.346,222.728c-1.326,0.952-0.413,1.385-1.245,3.064c-0.443,0.895-1.01,1.881-1.512,2.898
			c-0.503,1.019-1.303,1.892-1.742,2.788c-0.809,1.651-1.301,2.983-1.301,3.037c0,0.017,1.212,0.261,3.241,0.287
			c0.887,0.011,1.95-0.195,3.165-0.183c0.96,0.01,2.016,0.226,3.16,0.236c0.99,0.009,2.045,0.017,3.161,0.026
			c1.006,0.009,2.061-0.028,3.16-0.019c1.017,0.008,2.074-0.162,3.163-0.153c1.025,0.008,2.08,0.134,3.162,0.142
			c1.03,0.008,2.085,0.135,3.162,0.143c1.034,0.008,2.09-0.1,3.163-0.092c1.037,0.007,2.094-0.259,3.164-0.252
			c1.041,0.008,2.096-0.042,3.164-0.035c1.042,0.007,2.096,0.278,3.162,0.285c1.044,0.007,2.099,0.143,3.162,0.149
			c1.047,0.007,2.101,0.084,3.163,0.09c1.048,0.007,2.105-0.279,3.165-0.273c1.05,0.006,2.104,0.022,3.163,0.028
			c1.05,0.006,2.103-0.026,3.158-0.021c1.052,0.006,2.105,0.239,3.16,0.245c1.055,0.006,2.111-0.058,3.166-0.052
			c1.057,0.005,2.114,0.029,3.167,0.034c1.06,0.006,2.115,0.111,3.169,0.116c1.059,0.006,2.115-0.153,3.166-0.148
			c1.061,0.005,2.117-0.135,3.166-0.13c1.063,0.005,2.117,0.192,3.164,0.197c1.064,0.004,2.121-0.264,3.167-0.26
			c1.065,0.004,2.121,0.007,3.165,0.011c1.068,0.004,2.123,0.346,3.164,0.35c1.07,0.003,2.125-0.069,3.163-0.066
			c1.073,0.003,2.129-0.04,3.163-0.037c1.078,0.002,2.135-0.173,3.165-0.171c1.083,0.002,2.139,0.231,3.164,0.233
			c1.089,0.001,2.145-0.289,3.161-0.288c1.1,0.001,2.155,0.073,3.162,0.073c1.115,0,2.171,0.312,3.161,0.31
			c1.144-0.003,2.202,0.049,3.162,0.045c1.212-0.006,2.27-0.153,3.155-0.163c1.972-0.02,3.058-0.159,3.113-0.199
			c0.188-0.135,0.024-1.488-0.586-3.233c-0.338-0.966-0.919-1.999-1.352-3.083s-0.694-2.247-1.115-3.181
			c-0.752-1.668-1.595-2.902-1.834-2.902c-0.074,0-1.185,0.048-3.124,0.05c-0.879,0.001-1.927,0.279-3.125,0.28
			c-0.951,0.001-1.996-0.167-3.126-0.166c-0.979,0.001-2.021-0.278-3.12-0.277c-0.996,0.001-2.038,0.146-3.124,0.146
			c-1.006,0.001-2.049-0.114-3.125-0.113c-1.014,0.001-2.057,0.242-3.126,0.243c-1.02,0.001-2.063,0.196-3.127,0.197
			c-1.023,0.001-2.067-0.401-3.128-0.4c-1.026,0.001-2.07-0.021-3.127-0.021c-1.03,0.002-2.073,0.318-3.127,0.319
			c-1.032,0.001-2.075-0.111-3.128-0.11c-1.034,0.001-2.077,0.141-3.127,0.142c-1.036,0.001-2.079-0.008-3.127-0.007
			c-1.039,0.001-2.082-0.002-3.128-0.001c-1.039,0.001-2.081-0.137-3.125-0.136c-1.042,0.001-2.085,0.203-3.129,0.205
			c-1.044,0-2.088-0.224-3.131-0.223c-1.046,0.001-2.091,0.037-3.133,0.038c-1.047,0.001-2.091,0-3.13,0.001
			c-1.049,0.001-2.093,0.108-3.131,0.109c-1.051,0.001-2.095,0.044-3.13,0.045c-1.053,0.001-2.098-0.048-3.131-0.047
			c-1.055,0.001-2.099-0.145-3.13-0.144c-1.058,0.002-2.101-0.115-3.128-0.114c-1.061,0.001-2.104,0.04-3.128,0.041
			c-1.065,0.001-2.11,0.183-3.13,0.184c-1.07,0.001-2.115-0.076-3.129-0.076c-1.077,0.002-2.12,0.125-3.127,0.126
			c-1.087,0.001-2.131,0.094-3.128,0.095c-1.103,0.001-2.147-0.095-3.127-0.094c-1.131,0.002-2.177,0.013-3.128,0.014
			c-1.199,0.001-2.248-0.129-3.125-0.128C155.504,222.755,155.614,221.818,154.346,222.728z"/>
	</g>
	<g>
		<path class="st0" d="M179.271,241.866c0.5,1.667-0.749,2.181,0.834,2.431c0.214,0.034,1.341,0.096,3.078,0.098
			c0.868,0.001,1.897-0.117,3.055-0.123c0.938-0.004,1.958-0.243,3.05-0.251c0.968-0.007,1.991,0.271,3.055,0.262
			c0.984-0.009,2.001-0.438,3.05-0.448c0.995-0.01,2.017,0.082,3.055,0.071c1.003-0.011,2.024,0.061,3.055,0.049
			c1.011-0.012,2.03-0.073,3.054-0.086c1.018-0.012,2.042,0.24,3.059,0.228c1.025-0.013,2.042-0.369,3.055-0.382
			c1.032-0.014,2.059,0.325,3.063,0.312c1.04-0.014,2.062-0.121,3.059-0.134c1.049-0.015,2.07,0.034,3.054,0.021
			c1.067-0.014,2.086-0.378,3.054-0.392c1.094-0.015,2.122,0.326,3.06,0.313c1.157-0.017,2.178-0.371,3.043-0.384
			c1.89-0.026,3.013,0.318,3.05,0.318"/>
	</g>
	<g>
		<path class="st0" d="M281.881,1.271c-0.633,1.344-0.579,1.369-1.212,2.712s-0.685,1.319-1.317,2.664s-0.439,1.435-1.073,2.779
			c-0.634,1.347-0.699,1.316-1.333,2.662c-0.634,1.347-0.601,1.362-1.234,2.708"/>
	</g>
	<path class="st1" d="M264.448,232.327c-0.604-1.833-1.462-12.646-5.729-9.333c-5.604-1.814-11.571,0.685-17.25-0.256
		c-11.179-1.851-24.813-0.884-36.207,0.234c-5.344,0.524-10.951-0.678-16.187-0.296c-10.052,0.75-23.013,2.232-32.739-0.003
		c-3.662-0.839-6.077,8.195-7.21,10.601c-1.16,2.462,8.406,0.912,9.439,1.061c11.05,1.589,23.108,0.346,34.072,0.247
		c15.87-0.155,31.758,1.233,47.675,0.899c3.965-0.084,15.108-1.873,18.232-0.5C261.805,236.409,268.28,233.026,264.448,232.327
		C264.13,231.365,265.347,232.491,264.448,232.327z"/>
</g>
</svg>
