<?xml version="1.0" encoding="utf-8"?>
<!-- Generator: Adobe Illustrator 16.0.0, SVG Export Plug-In . SVG Version: 6.00 Build 0)  -->
<!DOCTYPE svg PUBLIC "-//W3C//DTD SVG 1.1//EN" "http://www.w3.org/Graphics/SVG/1.1/DTD/svg11.dtd">
<svg version="1.1" xmlns="http://www.w3.org/2000/svg" xmlns:xlink="http://www.w3.org/1999/xlink" x="0px" y="0px"
	 width="414.402px" height="253.574px" viewBox="0 0 414.402 253.574" enable-background="new 0 0 414.402 253.574"
	 xml:space="preserve">

<g id="linework">
	<g id="Layer_2">
		<g id="XMLID_1_">
			<g>
				<path fill="none" stroke="#FFFFFF" stroke-miterlimit="10" d="M68.191,201.877c-0.25-0.03-0.5-0.05-0.74-0.05
					c-0.34,0-0.67,0.01-0.99,0.03c-0.76,0.04-1.48,0.1-2.14,0.1c-1.22,0-2.27,0.03-3.15,0.03c-2.04,0-1.56-0.13-3.1,0.109
					c-0.95,0.141-1.32,0.2-1.75-0.63c0,0,0-0.01-0.01-0.01c-0.71-1.38-0.34-1.5-0.34-3.06c0-1.561,0.09-1.561,0.09-3.12
					c0-1.561,0.24-1.561,0.24-3.12c0-1.561-0.12-1.561-0.12-3.12s-0.01-1.56-0.01-3.12c0-1.57-0.18-1.57-0.18-3.13
					s0.1-1.56,0.1-3.12c0-1.56-0.06-1.56-0.06-3.12c0-1.55,0.35-1.56,0.35-3.109c0-1.561-0.4-1.561-0.4-3.12
					c0-1.561,0.4-1.561,0.4-3.12c0-1.561-0.05-1.561-0.05-3.12s-0.17-1.56-0.17-3.12c0-1.56,0.09-1.56,0.09-3.12
					c0-1.56,0.1-1.56,0.1-3.13c0-1.56,0.08-1.56,0.08-3.12c0-1.56-0.24-1.56-0.24-3.12c0-1.56-0.09-1.56-0.09-3.12
					c0-1.56,0.13-1.56,0.13-3.119c0-1.561,0.15-1.561,0.15-3.12c0-1.561-0.07-1.561-0.07-3.12c0-1.561-0.04-1.561-0.04-3.12
					c0-1.57-0.19-1.57-0.19-3.13c0-1.561,0.14-1.561,0.14-3.12c0-1.56-0.07-1.56-0.07-3.12s0.15-1.56,0.15-3.12
					s-0.04-1.56-0.04-3.13c0-1.56-0.07-1.56-0.07-3.12s-0.07-1.56-0.07-3.13c0-1.56,0.2-1.56,0.2-3.12s-0.1-1.56-0.1-3.12
					c0-1.56,0.01-1.56,0.01-3.13c0-1.56,0.14-1.56,0.14-3.12c0-1.56-0.07-1.56-0.07-3.13c0-1.56,0.17-1.56,0.17-3.12
					c0-1.56-0.21-1.56-0.21-3.12c0-1.57-0.27-1.57-0.27-3.13c0-1.56,0.23-1.56,0.23-3.12s-0.15-1.56-0.15-3.13
					c0-1.56,0.19-1.56,0.19-3.12c0-1.57-0.25-1.57-0.25-3.13c0-1.56,0.18-1.56,0.18-3.12s0.22-1.57,0.22-3.13
					c0-1.56,0.02-1.56,0.02-3.12c0-1.57-0.03-1.57-0.03-3.13c0-1.56-0.02-1.56-0.02-3.12s0.05-1.56,0.05-3.12s0.03-1.56,0.03-3.13
					c0-1.56-0.15-1.56-0.15-3.12s-0.33-1.56-0.33-3.13c0-1.56,0.44-1.56,0.44-3.12s0.02-1.56,0.02-3.13c0-1.56-0.28-1.56-0.28-3.12
					c0-1.57,0.16-1.57,0.16-3.13s-0.02-1.56-0.02-3.13c0-1.56-0.13-1.56-0.13-3.13c0-1.56,0.03-1.56,0.03-3.12
					c0-1.57-0.12-1.57-0.12-3.13c0-1.57-0.08-1.57-0.08-3.13s0.4-1.56,0.4-3.13c0-1.57,0.03-1.57,0.03-3.14
					c0-1.56-0.21-1.56-0.32-3.12c-0.16-2.24-0.04-1.34,2.21-3.76c2.25-2.41,1.09-2.76,3.23-2.8c1.57-0.03,1.57,0.07,3.13,0.07
					c1.57,0,1.57,0.05,3.13,0.05c1.57,0,1.57,0.17,3.13,0.16c1.57,0,1.57-0.07,3.13-0.07c1.57,0,1.57,0.08,3.13,0.08
					c1.57,0,1.57-0.19,3.13-0.19c1.57,0,1.57-0.13,3.13-0.13c1.57,0,1.57-0.1,3.13-0.1c1.57,0,1.57,0.21,3.13,0.21
					s1.56,0.02,3.13,0.02c1.56,0,1.56,0.04,3.13,0.04c1.56,0,1.56,0.13,3.13,0.13c1.56,0,1.56-0.27,3.13-0.27
					c1.56-0.01,1.56,0.18,3.13,0.18c1.56,0,1.56-0.29,3.13-0.29c1.56,0,1.56,0.26,3.13,0.26c1.56,0,1.56-0.19,3.13-0.19
					c1.56,0,1.56,0.24,3.13,0.24c1.56,0,1.56-0.09,3.13-0.09c1.56,0,1.56,0.19,3.13,0.19c1.56,0,1.56-0.33,3.13-0.33
					c1.56,0,1.56-0.05,3.13-0.05c1.56,0,1.56,0.39,3.13,0.39c1.56-0.01,1.56-0.34,3.13-0.34c1.56,0,1.56,0.17,3.13,0.17
					c1.56,0,1.56,0.19,3.13,0.18c1.56,0,1.56-0.45,3.13-0.45c1.56,0,1.56,0.07,3.13,0.07c1.56,0,1.56-0.04,3.13-0.04
					c1.57,0,1.57,0.25,3.13,0.25c1.57,0,1.57-0.25,3.13-0.25c1.57,0,1.57,0.27,3.13,0.27c1.57,0,1.57-0.34,3.13-0.35
					c1.56,0,1.56,0.32,3.13,0.32c1.56,0,1.56-0.15,3.12-0.15c1.57,0,1.57-0.14,3.14-0.14c1.56,0,1.56,0.22,3.13,0.22
					c1.56,0,1.56-0.12,3.13-0.12c1.56,0,1.56,0.3,3.12,0.3c1.57,0,1.57-0.06,3.13-0.06s1.56,0.02,3.12,0.01
					c1.57,0,1.57,0.02,3.13,0.02s1.56-0.34,3.13-0.34c1.56,0,1.56,0,3.13,0c1.56-0.01,1.56,0.12,3.13,0.11
					c1.56,0,1.56,0.29,3.13,0.29c1.56-0.01,1.56-0.31,3.13-0.31c1.56,0,1.56-0.02,3.13-0.02c1.56,0,1.56,0.02,3.13,0.02
					c1.56,0,1.56,0.06,3.13,0.05c1.56,0,1.56,0.04,3.12,0.03c1.569,0,1.569,0.06,3.13,0.06c1.57,0,1.57,0.11,3.13,0.11
					c1.57,0,1.57-0.33,3.14-0.33c1.561,0,1.561,0.07,3.131,0.07c1.56,0,1.56,0.17,3.13,0.17c1.56,0,1.56-0.22,3.13-0.22
					c1.56,0,1.56-0.01,3.13-0.01c1.57-0.01,1.57,0.07,3.13,0.06c1.57,0,1.57-0.05,3.13-0.05c1.57,0,1.57-0.12,3.14-0.12
					c1.561,0,1.561,0.04,3.131,0.04c1.56,0,1.56,0.07,3.13,0.06c1.569,0,1.56,0.01,3.13,0.01s1.57-0.11,3.13-0.11
					c1.57,0,1.57,0.17,3.14,0.17c1.561,0,1.561,0.13,3.13,0.13c1.561,0,1.561-0.25,3.131-0.25c1.569,0,1.569,0.12,3.14,0.12
					c1.56,0,1.56-0.15,3.13-0.16c1.56,0,1.56,0.1,3.13,0.1s1.57,0.2,3.13,0.2c1.57,0,1.57-0.26,3.141-0.26
					c1.569,0,1.569,0.13,3.13,0.13c1.569,0,1.569,0.21,3.14,0.2c1.561,0,1.561-0.09,3.13-0.09c1.561,0,1.561-0.05,3.13-0.05
					c1.561,0,1.561-0.08,3.13-0.08c1.57,0,1.57-0.08,3.131-0.08c1.569,0,1.569-0.01,3.13-0.01c1.569,0,1.569,0.12,3.14,0.12
					s1.57,0.08,3.13,0.07c1.57,0,1.57-0.35,3.141-0.35c1.56,0,1.56,0.03,3.13,0.03c1.569,0,1.569,0.18,3.14,0.18
					s1.57,0.23,3.14,0.22c1.561,0,1.561-0.08,3.131-0.08c1.569,0,1.569,0.06,3.14,0.06c1.56,0,1.56-0.4,3.13-0.4
					s1.57,0.28,3.14,0.28c1.57,0,1.57,0,3.141,0c1.569,0,1.569,0.1,3.14,0.1s1.59-0.38,3.15-0.23c1.649,0.16,1.5,0.67,3.01,1.42
					c1.1,0.54,2.439,1.01,2.8,1.8c0.34,0.72,0.38,1.77,0.74,2.59c0.56,1.31,1.27,1.03,1.42,2.36c0.17,1.55-0.12,1.58-0.12,3.15
					s-0.24,1.57-0.24,3.13c0,1.57,0.2,1.57,0.2,3.14c0,1.56-0.1,1.56-0.1,3.13c0,1.57-0.13,1.57-0.13,3.14
					c0,1.56-0.021,1.56-0.021,3.13c0,1.57,0.33,1.57,0.33,3.13c0,1.57-0.29,1.57-0.29,3.13c0,1.57,0.13,1.57,0.13,3.13
					c0,1.57-0.109,1.57-0.109,3.14c0,1.56,0.29,1.56,0.29,3.13c0,1.56-0.351,1.56-0.351,3.13c0,1.57,0.16,1.57,0.16,3.14
					c0,1.56-0.09,1.56-0.09,3.13c0,1.57,0.34,1.57,0.34,3.14s-0.09,1.57-0.09,3.13c0,1.57-0.34,1.57-0.34,3.14
					c0,1.56,0.109,1.56,0.109,3.13s-0.1,1.56-0.1,3.13c0,1.57,0.17,1.57,0.17,3.14c0,1.56-0.12,1.56-0.12,3.13
					c0,1.57-0.07,1.57-0.07,3.14s0.391,1.57,0.391,3.14c0,1.56-0.181,1.56-0.181,3.13s-0.109,1.57-0.109,3.13
					c0,1.57,0.3,1.57,0.3,3.14s-0.15,1.57-0.15,3.14c0,1.57,0.091,1.57,0.091,3.13c0,1.57-0.061,1.57-0.061,3.14
					c0,1.57-0.04,1.57-0.04,3.13c0,1.57-0.07,1.57-0.07,3.14c0,1.57,0.091,1.57,0.091,3.14c0,1.57-0.221,1.57-0.221,3.14
					s0.28,1.57,0.28,3.13c0,1.57-0.29,1.57-0.29,3.14s0.26,1.57,0.26,3.14c0,1.57-0.26,1.57-0.26,3.14c0,1.57,0.34,1.57,0.34,3.13
					c0,1.57-0.37,1.57-0.37,3.141c0,1.569,0.15,1.569,0.15,3.14s0.17,1.57,0.17,3.14c0,1.57-0.12,1.57-0.12,3.141
					c0,1.569,0.17,1.569,0.17,3.14s-0.229,1.57-0.229,3.13c0,1.57,0.2,1.57,0.2,3.141c0,1.56-0.25,1.56-0.25,3.13
					c0,1.569,0.1,1.569,0.1,3.14s0.27,1.57,0.27,3.14c0,1.57-0.43,1.57-0.43,3.141c0,1.569,0.3,1.569,0.3,3.14
					s-0.34,1.57-0.34,3.141c0,1.569,0.18,1.569,0.18,3.14s0.12,1.57,0.12,3.14c0,1.57-0.04,1.57-0.04,3.141
					c0,1.569-0.109,1.569-0.109,3.14s0.13,1.57,0.13,3.14c0,1.57-0.11,1.57-0.11,3.141c0,1.569,0.221,1.569,0.221,3.14
					c0,1.58-0.33,1.57-0.33,3.15c0,1.569,0.14,1.569,0.14,3.14c0,1.58,0.25,1.59,0.15,3.16c-0.011,0.17-0.04,0.31-0.091,0.42
					c-0.159,0.39-0.479,0.54-0.77,0.68c-0.021,0.01-1.04,0.271-3.07,0.28c-0.87,0-1.93-0.271-3.14-0.271c-0.95,0-2,0.4-3.14,0.4
					c-0.961,0-1.98-0.39-3.07-0.41"/>
				<path fill="none" stroke="#FFFFFF" stroke-miterlimit="10" d="M114.611,201.807c-1.06,0-2.1,0.36-3.14,0.36
					c-1.06,0-2.1-0.149-3.14-0.149c-1.06,0-2.11-0.24-3.15-0.24c-1.06,0-2.11,0.34-3.14,0.34c-1.07,0-2.12-0.19-3.15-0.19
					c-1.07,0-2.12-0.21-3.15-0.21c-1.07-0.01-2.12,0-3.15,0c-1.07,0-2.12,0.32-3.14,0.32c-1.07,0-2.12-0.28-3.15-0.28
					c-1.07,0-2.12,0.141-3.14,0.141c-1.08,0-2.12,0.1-3.14,0.1c-1.08,0-2.13-0.05-3.15-0.06c-1.08,0-2.13-0.091-3.13-0.101
					c-1.1,0-2.15,0.34-3.15,0.34c-0.83,0-1.63-0.199-2.39-0.3"/>
				<path fill="none" stroke="#FFFFFF" stroke-miterlimit="10" d="M120.901,201.887c-0.61,0-1.22-0.05-1.82-0.09
					c-0.44-0.029-0.88-0.05-1.32-0.05c-0.92,0-1.83,0.05-2.74,0.05"/>
				<path fill="none" stroke="#FFFFFF" stroke-miterlimit="10" d="M123.261,201.777c-0.66,0.029-1.32,0.09-1.97,0.1"/>
				<path fill="none" stroke="#FFFFFF" stroke-miterlimit="10" d="M139.331,201.757c-0.91,0.05-1.81,0.221-2.7,0.221
					c-1.05,0-2.1,0.149-3.14,0.149c-1.06,0-2.11-0.08-3.15-0.08c-1.06-0.01-2.1-0.02-3.15-0.02c-1.01,0-2.01-0.25-3.01-0.271"/>
				<path fill="none" stroke="#FFFFFF" stroke-miterlimit="10" d="M147.861,201.757c-0.6,0.011-1.2,0.021-1.79,0.011
					c-0.25,0-0.49,0.02-0.74,0.06c-0.8,0.12-1.61,0.38-2.41,0.38c-1.05,0-2.1-0.45-3.14-0.46"/>
				<path fill="none" stroke="#FFFFFF" stroke-miterlimit="10" d="M347.34,201.797c-0.02,0-0.04,0-0.06,0
					c-0.67,0-1.37-0.02-2.1-0.04c-0.341,0-0.69-0.01-1.04-0.01c-1,0-2.051,0.03-3.141,0.03c-1.01,0-2.06,0.189-3.14,0.189
					c-1.021,0-2.07,0.101-3.15,0.101c-1.02,0-2.06,0.12-3.14,0.12c-1.021,0-2.07,0.02-3.14,0.02c-1.021,0-2.07-0.14-3.141-0.14
					c-1.03,0-2.07-0.28-3.14-0.28c-1.03,0-2.07,0.26-3.141,0.26c-1.029,0-2.079,0.13-3.14,0.13c-1.03,0-2.08-0.13-3.14-0.13
					c-1.03,0-2.08-0.229-3.141-0.229c-1.029,0-2.08,0.3-3.14,0.3c-1.04,0-2.08-0.13-3.14-0.13c-1.04,0-2.08-0.03-3.141-0.03
					c-1.04,0-2.09,0.16-3.14,0.16c-1.04,0-2.09,0.15-3.15,0.15c-1.04,0-2.08-0.23-3.14-0.23c-1.04,0-2.09-0.13-3.14-0.13
					c-1.04,0-2.091-0.11-3.141-0.11s-2.09,0.061-3.149,0.061c-1.04,0-2.091,0.13-3.141,0.13c-1.04,0-2.09,0.06-3.14,0.06
					c-1.04,0-2.09-0.229-3.14-0.229c-1.04,0-2.091,0.14-3.141,0.14c-1.04,0-2.09-0.06-3.14-0.06c-1.04,0-2.09,0.029-3.141,0.029
					c-1.05,0-2.09-0.06-3.14-0.06s-2.09,0.32-3.149,0.32c-1.04,0-2.091,0.069-3.141,0.069c-1.04,0-2.09-0.479-3.14-0.479
					c-1.04,0-2.09-0.01-3.141-0.01c-1.05,0-2.1,0.01-3.149,0.01c-1.04,0-2.09,0.47-3.141,0.47c-0.14,0-0.279-0.01-0.409-0.02
					c-0.91-0.08-1.82-0.4-2.74-0.4c-1.04,0-2.09,0.04-3.14,0.04c-1.04,0-2.091,0.12-3.141,0.11c-1.04,0-2.09,0.02-3.14,0.02
					c-1.04,0-2.09-0.03-3.141-0.03c-1.05,0-2.1,0.021-3.14,0.021c-1.05,0-2.1,0.03-3.15,0.03c-1.05,0-2.09,0.189-3.14,0.189
					s-2.1-0.27-3.149-0.27c-1.051,0-2.101,0.29-3.141,0.29c-1.05,0-2.1-0.11-3.15-0.11c-1.05,0-2.1-0.19-3.15-0.19
					s-2.1,0.141-3.14,0.141c-1.05,0-2.1,0.12-3.15,0.12s-2.1-0.33-3.15-0.33c-1.05,0-2.1,0.06-3.15,0.06
					c-1.05-0.01-2.1-0.02-3.15-0.02c-1.05,0-2.1,0.08-3.15,0.08c-1.05,0-2.1-0.03-3.15-0.03s-2.1-0.16-3.15-0.16
					c-1.05-0.01-2.11,0.16-3.15,0.16c-1.06,0-2.11,0.17-3.15,0.17c-1.06,0-2.11-0.07-3.16-0.07c-1.05,0-2.1-0.229-3.15-0.229
					c-1.05,0-2.1,0.16-3.14,0.16c-1.05,0-2.1,0.029-3.15,0.029c-1.05,0-2.1-0.21-3.14-0.21c-0.86,0-1.72,0.021-2.57,0.021
					c-0.19,0.01-0.39,0.01-0.58,0.01c-1.05,0-2.1-0.08-3.14-0.08c-0.13,0-0.25,0-0.38,0"/>
				<path fill="none" stroke="#FFFFFF" stroke-miterlimit="10" d="M67.871,188.367c-1.11-1.11,0.26-1.71,0.27-3.29
					c0-1.56-0.03-1.56-0.02-3.14c0-1.561,0.15-1.561,0.15-3.131c0-1.569-0.28-1.569-0.28-3.14c0.01-1.58,0.31-1.57,0.31-3.14
					c0.01-1.57-0.19-1.57-0.18-3.15c0-1.57-0.15-1.57-0.15-3.14c0.01-1.57,0.29-1.57,0.29-3.15c0.01-1.569,0-1.569,0.01-3.14
					c0-1.57-0.34-1.57-0.34-3.15c0-1.569,0.34-1.56,0.35-3.14c0-1.57-0.24-1.57-0.23-3.14c0-1.57,0.07-1.57,0.08-3.141
					c0-1.57,0.03-1.57,0.04-3.14c0-1.58,0.21-1.58,0.21-3.15c0.01-1.569-0.04-1.569-0.03-3.149c0-1.57-0.06-1.57-0.06-3.141
					c0.01-1.569-0.16-1.569-0.16-3.14c0.01-1.57,0.11-1.57,0.12-3.15c0-1.57,0-1.57,0.01-3.14c0-1.57,0.11-1.57,0.11-3.15
					c0.01-1.57-0.11-1.57-0.1-3.14c0-1.57,0.08-1.57,0.08-3.15c0.01-1.57-0.33-1.57-0.33-3.14c0.01-1.57,0.02-1.57,0.03-3.15
					c0-1.57,0.21-1.57,0.22-3.14c0-1.58-0.08-1.58-0.08-3.15c0.01-1.57-0.09-1.57-0.09-3.14c0.01-1.58,0.24-1.58,0.25-3.15
					c0-1.57-0.16-1.57-0.16-3.15c0.01-1.57,0.23-1.57,0.24-3.14c0-1.57-0.02-1.57-0.01-3.15c0-1.57-0.19-1.57-0.19-3.14
					c0.01-1.58-0.1-1.58-0.09-3.15c0-1.57,0.09-1.57,0.09-3.15c0.01-1.57-0.07-1.57-0.06-3.14c0-1.58,0.1-1.58,0.1-3.15
					c0-1.57-0.09-1.57-0.09-3.14c0.01-1.58,0.05-1.58,0.06-3.15c0-1.57,0.18-1.57,0.18-3.14c0.01-1.57-0.14-1.57-0.14-3.15
					c0-1.57-0.01-1.57,0-3.14c0-1.58-0.13-1.58-0.12-3.15c0-1.57,0.21-1.57,0.21-3.15c0.01-1.57-0.01-1.57,0-3.15
					c0-1.57-0.12-1.57-0.12-3.14c0.01-1.58,0.24-1.58,0.25-3.15c0-1.58-0.03-1.58-0.02-3.15c0-1.58,0.13-1.58,0.14-3.15
					c0-1.57-0.04-1.57-0.03-3.15c0-1.57-0.21-1.57-0.21-3.15c0.01-1.57-0.05-1.57-0.04-3.15c0-1.57,0.04-1.57,0.04-3.15
					c0-1.58,0.3-1.58,0.3-3.15c0-1.58-1.32-2.08-0.21-3.2c1.1-1.11,1.6,0.07,3.17,0.07c1.56,0,1.56-0.14,3.12-0.14
					s1.56,0.23,3.12,0.23s1.56-0.33,3.12-0.34c1.56,0,1.56,0.09,3.12,0.08c1.56,0,1.56,0.05,3.12,0.05
					c1.56-0.01,1.56,0.16,3.12,0.16s1.56,0.05,3.12,0.04c1.56,0,1.56,0.06,3.12,0.06s1.56,0,3.12,0s1.56-0.46,3.12-0.47
					c1.56,0,1.56,0,3.12,0c1.56-0.01,1.56,0.23,3.12,0.23c1.56-0.01,1.57,0.16,3.13,0.16c1.56,0,1.56-0.02,3.12-0.02
					s1.56-0.1,3.12-0.11c1.56,0,1.56-0.28,3.12-0.28s1.56-0.02,3.12-0.03c1.56,0,1.56,0.02,3.12,0.02s1.56,0.47,3.12,0.46
					c1.56,0,1.56-0.18,3.12-0.19c1.56,0,1.56-0.26,3.12-0.26c1.56,0,1.56,0.39,3.13,0.39c1.56,0,1.56-0.28,3.12-0.28
					c1.56-0.01,1.56,0.05,3.12,0.05c1.56-0.01,1.56,0.2,3.12,0.2c1.56-0.01,1.56-0.42,3.12-0.42s1.56,0.31,3.12,0.31
					c1.56,0,1.56-0.03,3.12-0.03s1.56-0.03,3.12-0.04c1.56,0,1.56,0.21,3.12,0.2c1.56,0,1.56-0.03,3.12-0.04
					c1.56,0,1.56-0.31,3.12-0.32c1.56,0,1.56-0.13,3.12-0.14c1.56,0,1.56,0.02,3.12,0.01c1.56,0,1.56,0.38,3.12,0.37
					c1.56,0,1.56-0.23,3.12-0.23c1.56,0,1.56,0.25,3.11,0.25c1.56,0,1.56-0.39,3.12-0.39c1.56,0,1.56,0.31,3.12,0.31
					c1.56-0.01,1.56-0.31,3.12-0.31c1.56-0.01,1.57,0.39,3.13,0.38c1.56,0,1.56-0.21,3.12-0.21s1.56-0.1,3.12-0.1
					s1.56,0.07,3.12,0.07c1.56-0.01,1.56-0.13,3.12-0.13c1.56-0.01,1.56,0.17,3.12,0.17c1.56-0.01,1.56,0.12,3.119,0.12
					c1.561,0,1.561-0.36,3.12-0.36c1.561,0,1.561,0.25,3.12,0.24c1.561,0,1.561-0.28,3.12-0.28s1.56,0.17,3.12,0.16
					c1.57,0,1.57,0.22,3.13,0.21c1.56,0,1.56-0.16,3.12-0.16c1.56,0,1.56,0.04,3.12,0.03c1.56,0,1.56,0.15,3.12,0.14
					c1.56,0,1.56-0.11,3.13-0.12c1.56,0,1.56-0.09,3.12-0.1c1.56,0,1.56,0.28,3.12,0.27c1.56,0,1.56-0.25,3.119-0.25
					c1.561-0.01,1.561-0.08,3.131-0.08c1.56,0,1.56,0.05,3.119,0.04c1.561,0,1.561-0.1,3.12-0.1c1.561,0,1.561-0.08,3.13-0.08
					c1.561,0,1.561,0.06,3.12,0.06c1.561,0,1.561,0.13,3.12,0.13c1.57,0,1.57,0.2,3.13,0.2c1.561,0,1.561-0.41,3.12-0.41
					c1.561,0,1.561,0,3.13,0c1.561-0.01,1.561,0.13,3.12,0.12c1.561,0,1.561,0.27,3.13,0.27c1.561,0,1.561,0.03,3.12,0.03
					c1.561,0,1.561-0.04,3.12-0.04c1.561-0.01,1.561-0.01,3.12-0.02c1.56,0,1.56-0.13,3.12-0.13c1.57,0,1.56-0.11,3.13-0.11
					c1.56-0.01,1.56,0.17,3.12,0.17c1.56,0,1.56-0.37,3.13-0.38c1.56,0,1.56,0.41,3.12,0.41c1.56,0,1.56,0.01,3.13,0.01
					c1.56-0.01,1.56-0.03,3.12-0.04c1.57,0,1.57,0.08,3.13,0.07c1.56,0,1.56-0.12,3.13-0.12c1.561-0.01,1.561,0.07,3.12,0.06
					c1.57,0,1.57-0.14,3.13-0.14c1.561-0.01,1.561-0.17,3.13-0.18c1.561,0,1.561,0.08,3.13,0.07c1.561,0,1.561,0.05,3.13,0.05
					c1.57,0,2.07-1.16,3.181-0.05c1.109,1.12-0.03,1.62-0.03,3.19c0,1.58,0.11,1.58,0.11,3.15s-0.19,1.57-0.19,3.15
					c0,1.57,0.04,1.57,0.04,3.15c0,1.57,0.03,1.57,0.03,3.15c0,1.57,0.01,1.57,0.01,3.15c0,1.57,0.06,1.57,0.06,3.15
					s-0.18,1.58-0.18,3.15c0,1.58,0.11,1.58,0.11,3.16c0,1.57-0.23,1.57-0.23,3.15c0,1.57,0.03,1.57,0.03,3.15
					c0,1.57,0.38,1.57,0.38,3.15c0,1.57-0.02,1.57-0.02,3.15c0,1.57-0.07,1.57-0.07,3.15s-0.28,1.58-0.28,3.15
					c0,1.58,0.24,1.58,0.24,3.16s0.1,1.58,0.1,3.15c0,1.58-0.3,1.58-0.3,3.15c0,1.58-0.09,1.58-0.09,3.16
					c0,1.57,0.37,1.57,0.37,3.15s0.1,1.58,0.1,3.15c0,1.58-0.439,1.58-0.439,3.16c0,1.57,0.109,1.57,0.109,3.15
					s-0.06,1.58-0.06,3.16c0,1.57,0.06,1.57,0.06,3.15s-0.09,1.58-0.09,3.15c0,1.58,0.16,1.58,0.16,3.16s0,1.58,0,3.15
					c0,1.58,0.16,1.58,0.16,3.16s-0.07,1.58-0.07,3.15c0,1.58-0.05,1.58-0.05,3.16c0,1.57-0.03,1.57-0.03,3.15s0,1.58,0,3.16
					c0,1.58-0.1,1.58-0.1,3.15c0,1.58,0.18,1.58,0.18,3.16c0,1.58-0.029,1.58-0.029,3.161c0,1.569,0.02,1.569,0.02,3.149
					s0.14,1.58,0.14,3.16c0,1.57-0.399,1.57-0.399,3.15c0,1.569,0.229,1.569,0.229,3.149s0.11,1.58,0.11,3.16
					c0,1.57-0.36,1.57-0.36,3.15s0.32,1.58,0.32,3.159c0,1.57-0.31,1.57-0.31,3.15s0.189,1.58,0.189,3.16s0.25,1.58,0.25,3.15
					c0,1.579-0.18,1.579-0.18,3.159s0.2,1.58,0.2,3.16s-0.261,1.58-0.261,3.16s0.08,1.58,0.08,3.16s-0.22,1.58-0.22,3.16
					s0.24,1.58,0.24,3.149c0,1.58-0.24,1.58-0.24,3.16c0,1.59,0.18,1.59,0.18,3.17s0.99,1.94-0.12,3.07
					c-1.1,1.11-1.47-0.09-3.029-0.09c-1.57,0-1.57,0.09-3.13,0.09c-1.561,0-1.561,0.22-3.131,0.22c-1.56,0-1.56-0.17-3.119-0.17
					c-1.57,0-1.57,0.271-3.131,0.271c-1.56,0-1.56-0.03-3.119-0.03c-1.561,0-1.561-0.44-3.131-0.44c-1.56,0-1.56,0.21-3.119,0.21
					c-1.57,0-1.57,0.24-3.131,0.24c-1.56,0-1.56-0.22-3.13-0.22c-1.56,0-1.56,0.109-3.13,0.109c-1.56,0-1.56,0.101-3.12,0.101
					c-1.569,0-1.569-0.4-3.13-0.4c-1.56,0-1.56,0.08-3.13,0.08c-1.56,0-1.56,0.28-3.12,0.28c-1.56,0-1.56-0.23-3.13-0.23
					c-1.56,0-1.56,0.091-3.12,0.091c-1.569,0-1.569,0.029-3.13,0.029c-1.56,0-1.56-0.16-3.13-0.16c-1.56,0-1.56,0.021-3.13,0.021
					c-1.561,0-1.561-0.03-3.12-0.03c-1.57,0-1.57,0.03-3.13,0.03c-1.561,0-1.561,0.15-3.12,0.15c-1.57,0-1.57,0.05-3.13,0.05
					c-1.57,0-1.561-0.08-3.13-0.08c-1.561,0-1.561,0.18-3.13,0.18c-1.561,0-1.561-0.35-3.12-0.35c-1.57,0-1.57-0.05-3.13-0.05
					c-1.561,0-1.561,0.22-3.12,0.22c-1.57,0-1.57-0.24-3.13-0.24c-1.561,0-1.561,0.06-3.12,0.06c-1.57,0-1.57,0.211-3.13,0.211
					c-1.561,0-1.561,0.069-3.131,0.069c-1.56,0-1.56-0.069-3.119-0.069c-1.561,0-1.561-0.16-3.131-0.16
					c-1.56,0-1.56,0.109-3.119,0.109c-1.561,0-1.561,0.101-3.12,0.101c-1.561,0-1.561-0.17-3.12-0.17c-1.57,0-1.57,0.149-3.13,0.149
					c-1.561,0-1.561-0.029-3.12-0.029c-1.57,0-1.57-0.061-3.13-0.061c-1.561,0-1.561-0.18-3.13-0.18c-1.561,0-1.561,0.42-3.131,0.42
					c-1.56,0-1.56-0.19-3.119-0.19c-1.561,0-1.561-0.189-3.13-0.189c-1.56,0-1.56,0.34-3.12,0.34s-1.56-0.12-3.13-0.12
					c-1.56,0-1.56,0.08-3.12,0.08c-1.57,0-1.57,0.02-3.13,0.02s-1.56-0.01-3.13-0.01c-1.56,0-1.56-0.01-3.13-0.01
					c-1.56,0-1.56-0.18-3.12-0.18c-1.57,0-1.57-0.101-3.13-0.101c-1.56,0-1.56-0.02-3.13-0.02c-1.56,0-1.56,0.29-3.12,0.29
					c-1.57,0-1.57-0.36-3.13-0.36c-1.57,0-1.57,0.06-3.13,0.06s-1.56,0.16-3.13,0.16c-1.56,0-1.56-0.069-3.13-0.069
					c-1.56,0-1.56,0.09-3.13,0.09c-1.56,0-1.56-0.181-3.12-0.181c-1.57,0-1.57-0.079-3.13-0.079c-1.57,0-1.57,0.05-3.13,0.05
					c-1.57,0-1.57,0.18-3.13,0.18s-1.56,0.03-3.13,0.03c-1.56,0-1.56-0.12-3.13-0.12c-1.56,0-1.56,0.229-3.13,0.229
					c-1.56,0-1.56-0.31-3.13-0.31c-1.56,0-1.56,0.25-3.13,0.25c-1.56,0-1.56-0.04-3.13-0.04c-1.56,0-1.56,0.17-3.13,0.17
					c-1.56,0-1.56-0.04-3.13-0.04c-1.56,0-1.56-0.16-3.12-0.16s-1.56,0.03-3.13,0.03c-1.56,0-1.56-0.28-3.13-0.28
					c-1.56,0-1.56,0.42-3.12,0.42c-1.57,0-1.57-0.279-3.14-0.279c-1.56,0-1.56-0.15-3.12-0.15c-1.57,0-1.57,0.11-3.14,0.11
					c-1.56,0-1.56-0.04-3.13-0.04c-1.56,0-1.56,0.35-3.13,0.35c-1.57,0-1.57,0.021-3.13,0.021c-1.57,0-1.57-0.101-3.13-0.101
					c-1.57,0-1.57-0.18-3.13-0.18c-1.57,0-1.57-0.1-3.14-0.1c-1.56,0-1.56-0.051-3.13-0.051c-1.57,0-1.57,0.48-3.14,0.48
					c-1.57,0-1.6-0.57-3.13-0.21C69.451,188.657,68.98,189.478,67.871,188.367z"/>
				<path fill="none" stroke="#FFFFFF" stroke-miterlimit="10" d="M209.991,8.077c0,1.13-1,2.01-2.13,2.01
					c-1.13,0-1.99-0.88-1.99-2.01s0.86-2.28,1.99-2.28C208.991,5.797,209.991,6.947,209.991,8.077z"/>
				<path fill="none" stroke="#FFFFFF" stroke-miterlimit="10" d="M347.361,201.797c0.81-0.12,1.58-0.359,2.29-0.359
					c1.21,0,2.26,0.02,3.13,0.02c2.03,0.01,1.56-0.05,3.12,0.021c2.26,0.1,3.689,0.239,4.399-0.171
					c0.101-0.06,0.181-0.119,0.25-0.189c0.41-0.41,0.341-0.92,1.16-1.14c1.83-0.49,3.311-0.061,3.811-0.021
					c0.069,0.01,0.93,0.82,2.5,1.89c0.729,0.49,1.62,1.021,2.59,1.69c0.78,0.54,1.649,1.11,2.56,1.74
					c0.811,0.56,1.681,1.12,2.57,1.74c0.81,0.56,1.55,1.319,2.42,1.93c0.83,0.57,1.71,1.12,2.57,1.729
					c0.83,0.58,1.7,1.141,2.56,1.74c0.84,0.59,1.71,1.14,2.57,1.74c0.83,0.59,1.84,0.96,2.689,1.56
					c0.841,0.601,1.69,1.181,2.54,1.78c0.841,0.6,1.431,1.56,2.271,2.16c0.85,0.61,1.8,1.05,2.63,1.649
					c0.85,0.61,1.77,1.11,2.6,1.711c0.851,0.619,1.61,1.329,2.431,1.93c0.859,0.63,1.64,1.31,2.439,1.899
					c0.87,0.65,1.641,1.36,2.42,1.94c0.891,0.67,1.971,0.96,2.721,1.54c0.939,0.71,1.54,1.64,2.22,2.19
					c1.41,1.14,2.1,1.77,2.1,1.979c0,0.45,0.2,1.58,0.2,2.97c0,0.91-0.03,1.94-0.03,2.971c0,1.029-0.13,2.06-0.13,2.97
					c0,1.7,0.87,1.649,0.16,2.95c-0.68,1.26-1.52,1.399-2.27,1.649c-0.29,0.101-1.32,0.891-2.61,1.66c-0.85,0.5-1.84,0.97-2.71,1.45
					c-1.22,0.67-2.271,1.09-2.76,1.09c-0.07,0-1.15,0.07-3.12,0.07c-0.87-0.01-1.91,0.229-3.12,0.229c-0.94,0-1.98-0.35-3.12-0.35
					c-0.97,0-2.01,0.41-3.12,0.41c-0.979,0-2.02-0.261-3.12-0.261c-0.989,0-2.029,0.101-3.109,0.101c-1.011,0-2.051-0.24-3.12-0.24
					c-1.01,0-2.05,0.12-3.12,0.11c-1.01,0-2.05,0.04-3.12,0.04c-1.02,0-2.06,0.21-3.12,0.21c-1.02,0-2.06,0.05-3.12,0.05
					c-1.02-0.01-2.06-0.18-3.109-0.18c-1.021,0-2.061,0.17-3.12,0.17c-1.021,0-2.061-0.3-3.11-0.3c-1.03,0-2.06,0.199-3.12,0.199
					c-1.02,0-2.06,0.061-3.109,0.061c-1.03,0-2.07-0.23-3.12-0.23c-1.03,0-2.061-0.05-3.11-0.05c-1.03,0-2.07,0.16-3.12,0.16
					c-1.03,0-2.07-0.07-3.12-0.07c-1.029,0-2.069,0.141-3.109,0.141c-1.04-0.011-2.07-0.171-3.12-0.171
					c-1.03,0-2.07,0.091-3.12,0.091c-1.03,0-2.07-0.21-3.12-0.21c-1.03,0-2.07-0.091-3.12-0.091c-1.03,0-2.07,0.45-3.12,0.45
					c-1.029,0-2.069-0.02-3.12-0.02c-1.029-0.01-2.069-0.32-3.109-0.32s-2.08,0.23-3.12,0.23s-2.08-0.061-3.12-0.061
					s-2.08,0.141-3.12,0.141s-2.07-0.08-3.12-0.08c-1.03,0-2.08-0.271-3.12-0.271s-2.069,0.04-3.12,0.04
					c-1.029,0-2.069,0.29-3.119,0.29c-1.03,0-2.07-0.13-3.12-0.13c-1.03,0-2.07-0.271-3.12-0.271c-1.03,0-2.07,0.23-3.12,0.23
					c-1.03,0-2.07-0.18-3.11-0.18s-2.069,0.27-3.109,0.27c-1.04-0.01-2.08-0.26-3.12-0.26c-1.03,0-2.07-0.03-3.12-0.03
					c-1.03,0-2.07-0.04-3.11-0.04s-2.069,0.12-3.12,0.11c-1.029,0-2.069,0.02-3.109,0.02s-2.08,0.28-3.12,0.28s-2.08-0.21-3.12-0.21
					c-1.03,0-2.07-0.12-3.11-0.12s-2.08,0.33-3.12,0.33s-2.079-0.08-3.119-0.08s-2.08-0.26-3.12-0.26s-2.08,0.27-3.12,0.27
					s-2.08-0.359-3.12-0.359s-2.08,0.25-3.12,0.25c-1.04-0.011-2.07-0.16-3.11-0.16s-2.08,0.189-3.119,0.189
					c-1.04,0-2.08-0.18-3.12-0.18s-2.08,0.04-3.12,0.04s-2.08,0.021-3.12,0.021s-2.08,0.01-3.12,0.01s-2.08,0.22-3.12,0.22
					s-2.08-0.1-3.12-0.1s-2.08-0.15-3.12-0.15s-2.09,0.021-3.13,0.021c-1.04,0-2.08,0.17-3.12,0.17s-2.08-0.061-3.13-0.07
					c-1.04,0-2.08-0.25-3.12-0.25s-2.08,0.09-3.13,0.09c-1.04,0-2.08,0.08-3.12,0.08s-2.09-0.05-3.13-0.06
					c-1.04,0-2.08,0.1-3.12,0.1c-1.05,0-2.09-0.24-3.13-0.24c-1.05,0-2.09,0.01-3.13,0.01c-1.04-0.01-2.09,0.25-3.13,0.25
					s-2.08,0.091-3.12,0.091s-2.08-0.471-3.12-0.48c-1.04,0-2.09,0.08-3.13,0.08s-2.08-0.04-3.12-0.04
					c-1.04-0.01-2.08,0.37-3.12,0.37s-2.08-0.14-3.12-0.14c-1.05,0-2.09-0.181-3.12-0.181c-1.05,0-2.09,0.11-3.13,0.11
					s-2.08-0.12-3.12-0.12s-2.08,0.37-3.12,0.37c-1.04,0-2.08-0.28-3.12-0.28c-1.05,0-2.09,0.25-3.12,0.24
					c-1.05,0-2.09-0.26-3.13-0.26s-2.08,0.02-3.12,0.02s-2.08,0-3.12-0.01c-1.04,0-2.08,0.25-3.12,0.25
					c-1.04-0.01-2.09-0.22-3.12-0.22c-1.05-0.011-2.09-0.16-3.12-0.16c-1.05-0.01-2.09,0.06-3.13,0.06s-2.08,0.32-3.12,0.32
					s-2.08-0.43-3.12-0.43c-1.05,0-2.09,0.149-3.12,0.149c-1.05,0-2.09,0.04-3.13,0.04s-2.08-0.12-3.12-0.12
					c-1.05,0-2.09,0.24-3.12,0.24c-1.05,0-2.09,0.1-3.13,0.1s-2.08-0.17-3.12-0.17c-1.05,0-2.09-0.31-3.12-0.31
					c-1.05-0.01-2.09,0.4-3.12,0.4c-1.05,0-2.09-0.41-3.13-0.421c-1.05,0-2.09,0.101-3.12,0.091c-1.05,0-2.09-0.08-3.12-0.08
					c-1.05,0-2.09,0.16-3.12,0.16c-1.05-0.011-2.09-0.12-3.12-0.12c-1.05,0-2.09,0.229-3.12,0.229c-1.05-0.01-2.09-0.14-3.12-0.14
					c-1.06-0.01-2.1-0.021-3.12-0.021c-1.06,0-2.1,0.051-3.13,0.051c-1.06-0.011-2.1,0.109-3.12,0.1c-1.06,0-2.1-0.18-3.13-0.18
					c-1.06,0-2.1,0.279-3.12,0.279c-1.06,0-2.11-0.149-3.12-0.159c-1.07,0-2.11,0.13-3.12,0.119c-1.07,0-2.11-0.35-3.12-0.35
					c-1.07,0-2.12,0.02-3.12,0.02c-1.08-0.01-2.12,0.37-3.12,0.37c-1.09-0.01-2.13-0.08-3.11-0.08c-1.11,0-2.15-0.26-3.12-0.26
					c-1.14,0-2.18-0.05-3.11-0.05c-1.21-0.01-2.25,0.09-3.12,0.08c-1.98-0.01-3.02-0.14-3.08-0.16c-0.35-0.08-1.48-0.29-2.85-0.83
					c-0.85-0.34-1.73-0.91-2.68-1.34c-0.94-0.43-1.83-0.93-2.63-1.37c-1.21-0.689-2.45-1.09-2.6-1.61
					c-0.18-0.619-0.41-2.01-0.63-3.55c-0.17-1.16-0.3-2.439-0.38-3.58c-0.13-1.659,0.25-2.979,0.54-3.46
					c0.1-0.149,0.65-1.13,2.11-2.18c0.71-0.52,1.78-0.8,2.74-1.48c0.77-0.539,1.63-1.119,2.54-1.75c0.8-0.56,1.7-1.069,2.59-1.68
					c0.82-0.56,1.53-1.34,2.41-1.939c0.82-0.57,1.68-1.15,2.54-1.75c0.84-0.561,1.78-1.021,2.64-1.61c0.84-0.57,1.58-1.32,2.44-1.9
					c0.85-0.58,1.8-1.01,2.65-1.6c0.85-0.57,1.53-1.41,2.38-1.99c0.86-0.58,1.94-0.83,2.79-1.399c0.85-0.591,1.62-1.29,2.47-1.86
					c0.87-0.59,1.69-1.21,2.54-1.78c0.86-0.59,1.72-1.17,2.56-1.74c0.87-0.59,1.66-1.27,2.49-1.829
					c0.88-0.601,1.74-1.171,2.57-1.721c0.89-0.609,1.71-1.239,2.52-1.79c0.92-0.62,1.81-1.14,2.59-1.68
					c0.98-0.66,1.87-1.18,2.59-1.67c1.47-1,2.38-1.63,2.53-1.76c1.25-1,1.5-0.511,2.21-0.141c0.42,0.23,1.11,0.53,1.84,0.74
					c0.51,0.14,1.03,0.23,1.5,0.21c0.06,0,1.15-0.17,3.14-0.17c0.87-0.01,1.92,0.1,3.13,0.1c0.74,0,1.53,0.181,2.38,0.261
					c0.25,0.02,0.5,0.04,0.76,0.04c0.32,0,0.64-0.011,0.97-0.021h0.01c0.69-0.03,1.41-0.07,2.16-0.07c0.99,0,2.04-0.029,3.13-0.029
					c1.01,0,2.05-0.19,3.14-0.19c1.01,0,2.05,0.01,3.13,0.01c1.02,0,2.07-0.029,3.14-0.029c1.02,0,2.06-0.061,3.13-0.061
					c1.03,0,2.07,0,3.14,0c1.02,0,2.07,0.141,3.13,0.141c1.03,0,2.07-0.051,3.14-0.051c1.02,0,2.07-0.01,3.13-0.01
					c1.03,0,2.08-0.069,3.13-0.069c1.04,0,2.08-0.08,3.14-0.08c1.03,0,2.08,0.279,3.13,0.279c1.04,0,2.08-0.239,3.14-0.239
					c1.03,0,2.08,0.35,3.13,0.34c0.12,0,0.25,0,0.37-0.011c0.14,0,0.27,0,0.41-0.01c0.78-0.04,1.56-0.109,2.36-0.109
					c0.56,0,1.13,0.06,1.7,0.109c0.47,0.061,0.95,0.101,1.43,0.101c0.13,0,0.26,0,0.39-0.011c0.13,0,0.26,0,0.39-0.01
					c0.66-0.03,1.31-0.09,1.97-0.1c0.13-0.01,0.26-0.01,0.39-0.01c0.18,0,0.35,0,0.53-0.011c0.86-0.01,1.73-0.05,2.61-0.05
					c1.03,0,2.08,0.11,3.13,0.11c1.04,0,2.09-0.3,3.14-0.3c1.04,0,2.08,0.029,3.13,0.029c1.04,0,2.09,0.221,3.14,0.21
					c0.15,0,0.3,0,0.45-0.01c0.89-0.03,1.78-0.14,2.68-0.14c0.95,0,1.91,0.189,2.87,0.22c0.09,0.01,0.18,0.01,0.27,0.01
					c0.75,0,1.51-0.05,2.26-0.08c0.29,0,0.58-0.01,0.87-0.01c0.04,0,0.07,0,0.11,0c1,0.01,2.02,0.15,3.03,0.15
					c0.36,0,0.71-0.03,1.07-0.08c0.68-0.08,1.37-0.2,2.06-0.2c1.04,0,2.09,0.08,3.14,0.08c1.04,0,2.08-0.01,3.13-0.01
					c1.05,0,2.09,0.01,3.14,0.01c1.04,0,2.09-0.03,3.14-0.03c1.04,0,2.09,0.07,3.13,0.07c1.05,0,2.09-0.08,3.14-0.08
					c1.04,0,2.09,0.09,3.14,0.09c1.04,0,2.09-0.08,3.14-0.08c1.04,0,2.08-0.03,3.13-0.03c1.04,0,2.09-0.06,3.13-0.06
					c1.05,0,2.09,0.13,3.14,0.13c1.04,0,2.09,0.1,3.13,0.1c1.05,0,2.09-0.01,3.14-0.01c1.04,0,2.09-0.069,3.14-0.069
					c1.04,0,2.09-0.141,3.13-0.141c1.05,0,2.1,0.271,3.14,0.271c1.05,0,2.1,0,3.14,0c1.05,0,2.1-0.391,3.149-0.391
					c1.04,0,2.091,0.36,3.141,0.36s2.09-0.35,3.14-0.35s2.101-0.011,3.141-0.011c1.05,0,2.1,0.09,3.149,0.09s2.09,0.131,3.141,0.131
					c1.05,0,2.1,0.149,3.149,0.149s2.09-0.06,3.14-0.06c1.051,0,2.101-0.351,3.15-0.351s2.1,0.08,3.14,0.08
					c1.051,0,2.101,0.021,3.15,0.021s2.1-0.021,3.14-0.021c1.051,0,2.101-0.08,3.15-0.08s2.1,0.431,3.14,0.431
					c1.051,0,2.101-0.36,3.15-0.36c1.04,0,2.09,0.08,3.13,0.08c1.05,0,2.1,0.03,3.14,0.03c1.061-0.011,2.101,0.13,3.141,0.13
					c1.06,0,2.1-0.311,3.14-0.311c1.061,0,2.101,0.261,3.141,0.261c1.06,0,2.1,0.22,3.14,0.22c1.06,0,2.1-0.271,3.14-0.271
					c1.061,0,2.101-0.189,3.141-0.189c1.06,0,2.1,0.34,3.14,0.34c0.24,0,0.479,0,0.72,0.01c0.811,0.01,1.62,0.04,2.42,0.04
					c1.061,0,2.11,0.01,3.141,0.01c1.06,0,2.1-0.38,3.14-0.38c1.06,0,2.1,0.311,3.14,0.311c1.061,0,2.101-0.25,3.141-0.25
					c1.05,0,2.1,0.17,3.14,0.17c1.05,0,2.101-0.2,3.13-0.2c1.061,0,2.11,0.06,3.141,0.06c1.06,0,2.109,0.221,3.14,0.221
					c1.07,0,2.11-0.21,3.15-0.21c1.06,0,2.109-0.141,3.14-0.141c1.06,0,2.11,0.17,3.14,0.17c1.07,0,2.12,0.261,3.141,0.261
					c1.069,0,2.12-0.37,3.14-0.37c1.07,0,2.12-0.05,3.14-0.05c1.07,0,2.12,0.199,3.13,0.199c1.08,0,2.131,0.261,3.141,0.261
					c1.09,0,2.13-0.261,3.13-0.261c1.1,0,2.15-0.029,3.14-0.029c0.62,0,1.221,0.08,1.801,0.149c0.46,0.061,0.909,0.11,1.34,0.11
					c0.279,0,0.55-0.03,0.819-0.07C347.34,201.797,347.351,201.797,347.361,201.797z"/>
				<path fill="none" stroke="#FFFFFF" stroke-miterlimit="10" d="M154.991,219.478c-0.39,0.05-0.79,0.09-1.18,0.09
					c-1.05,0-2.1-0.25-3.15-0.25c-1.05,0.01-2.1,0.3-3.14,0.3c-1.06,0.01-2.11-0.13-3.15-0.13c-1.05,0.01-2.11-0.21-3.15-0.21
					c-1.05,0.01-2.1,0.189-3.14,0.189c-1.06,0-2.11-0.21-3.15-0.21c-1.06,0.011-2.11,0.23-3.15,0.23c-1.05,0.01-2.1-0.01-3.14-0.01
					c-1.06,0.01-2.11,0.21-3.15,0.21c-1.06,0.01-2.11-0.37-3.14-0.36c-1.07,0-2.11,0.11-3.15,0.11c-1.06,0-2.11-0.101-3.15-0.101
					c-1.06,0.01-2.11,0.34-3.15,0.351c-1.06,0-2.11,0.06-3.15,0.06c-1.06,0-2.11-0.02-3.15-0.02c-1.07,0-2.12-0.381-3.14-0.381
					c-1.07,0-2.12,0.12-3.15,0.131c-1.07,0-2.12,0.239-3.14,0.239c-1.08,0-2.13-0.05-3.15-0.05c-1.08,0-2.13-0.07-3.14-0.07
					c-1.09,0-2.14-0.26-3.14-0.26c-1.1-0.01-2.15,0.44-3.14,0.44c-1.12,0-2.17-0.17-3.14-0.181c-1.15,0-2.2,0-3.14,0
					c-1.22-0.01-2.27-0.01-3.14-0.02c-2-0.01-3.06-0.15-3.11-0.18c-0.75-0.49-0.74-1.061-0.14-1.82c0.91-1.17,1.08-0.62,2.39-1.82
					c0.65-0.6,1.32-1.37,2.12-2.1c0.71-0.64,1.43-1.351,2.19-2.021c0.75-0.67,1.51-1.34,2.24-1.97c0.81-0.71,1.48-1.5,2.16-2.06
					c1.17-0.96,2.24-1.311,2.58-1.42c0.1-0.03,1.13-0.2,3.07-0.24c0.87-0.021,1.92,0.08,3.13,0.06c0.95-0.01,1.99-0.319,3.12-0.33
					c0.98-0.01,2.02,0.091,3.13,0.07c0.99,0,2.03-0.19,3.13-0.2c1-0.01,2.04,0.03,3.12,0.021c1.01-0.011,2.06,0.34,3.13,0.34
					c1.02-0.01,2.06-0.24,3.13-0.25c1.02-0.01,2.06-0.2,3.13-0.2c1.02-0.01,2.06,0.061,3.13,0.05c1.02-0.01,2.07-0.069,3.13-0.08
					c1.02-0.01,2.07,0.36,3.13,0.351c1.03,0,2.07-0.01,3.13-0.01c1.03-0.011,2.07-0.36,3.13-0.37c1.03,0,2.07,0.17,3.13,0.159
					c1.03,0,2.07-0.17,3.13-0.18c1.03,0,2.08,0.34,3.13,0.33c1.04,0,2.08-0.4,3.13-0.41c1.03,0,2.08,0.2,3.13,0.19
					c1.03-0.01,2.08,0.18,3.13,0.17c1.04,0,2.08-0.13,3.13-0.14c1.04,0,2.08,0.14,3.13,0.13c1.04-0.011,2.08-0.32,3.13-0.32
					c1.03-0.01,2.08-0.08,3.13-0.08c1.03-0.01,2.08,0.24,3.13,0.24c1.04-0.01,2.08-0.08,3.13-0.09c1.04,0,2.08-0.051,3.13-0.051
					c1.04-0.01,2.08,0.141,3.13,0.131c1.04,0,2.08-0.36,3.13-0.36c1.04-0.01,2.08,0.05,3.13,0.05c1.04-0.01,2.09,0.061,3.13,0.061
					c1.04-0.011,2.08-0.091,3.13-0.091c1.04-0.01,2.08,0.07,3.12,0.07s2.09,0.23,3.13,0.23c1.04-0.011,2.08-0.011,3.13-0.021
					c1.04,0,2.08-0.41,3.13-0.42c1.04,0,2.08,0.2,3.12,0.2c1.05-0.01,2.09-0.061,3.14-0.061c1.04-0.01,2.08-0.08,3.13-0.08
					c1.04-0.01,2.09-0.039,3.129-0.039c1.051-0.011,2.091,0.1,3.141,0.1c1.04-0.01,2.09,0.02,3.13,0.02c1.05,0,2.09-0.26,3.14-0.26
					c1.04,0,2.09,0,3.13,0c1.051,0,2.091,0.26,3.141,0.26c1.05-0.01,2.09-0.21,3.13-0.21c1.05,0,2.1,0.28,3.14,0.28
					c1.05-0.01,2.09,0.061,3.141,0.061c1.05-0.011,2.09-0.421,3.13-0.421c0.26,0,0.52,0.011,0.79,0.03
					c0.779,0.061,1.569,0.18,2.35,0.18c1.05,0,2.09-0.14,3.13-0.14c1.05-0.01,2.101,0.21,3.141,0.21c1.05,0,2.09-0.25,3.13-0.25
					c1.05,0,2.1,0.271,3.14,0.271c1.05,0,2.09-0.25,3.13-0.261c1.05,0,2.101,0.32,3.141,0.32c1.05,0,2.09-0.22,3.13-0.22
					c1.05-0.01,2.1-0.03,3.13-0.04c1.05,0,2.1,0.03,3.13,0.03c1.05,0,2.1-0.24,3.13-0.24c1.06-0.01,2.1,0.439,3.13,0.439
					c1.061,0,2.101-0.3,3.13-0.3c1.061,0,2.11-0.02,3.141-0.03c1.06,0,2.1,0.021,3.13,0.021c1.06,0,2.109,0.18,3.14,0.18
					c1.061,0,2.101-0.17,3.13-0.17c0.55,0,1.101,0.01,1.641,0.01c0.5,0.011,1,0.021,1.489,0.021c1.07,0,2.11,0.08,3.141,0.08
					c1.06,0,2.1-0.16,3.13-0.16c1.06,0,2.109,0.3,3.12,0.3c1.069,0,2.12-0.149,3.13-0.149c1.08,0.01,2.12-0.141,3.13-0.141
					c1.09,0.01,2.13,0.07,3.13,0.07c1.09,0.01,2.13,0.06,3.12,0.07c1.11,0,2.16,0.1,3.13,0.1c1.14,0.01,2.18-0.05,3.12-0.04
					c1.21,0.01,2.26-0.22,3.13-0.2c1.94,0.03,3.07,0.2,3.15,0.24c0.31,0.16,1.26,0.83,2.42,1.83c0.67,0.58,1.399,1.3,2.21,2.03
					c0.71,0.649,1.33,1.489,2.069,2.189c0.74,0.7,1.69,1.19,2.381,1.87c0.779,0.771,1.199,1.79,1.8,2.44
					c1.14,1.21,1.76,1.909,1.68,2.159c-0.02,0.07-0.88,0.141-2.89,0.2c-0.88,0.03-1.92,0.2-3.141,0.23
					c-0.949,0.02-2-0.12-3.149-0.101c-0.98,0.021-2.021-0.06-3.141-0.04c-0.989,0.021-2.04,0.12-3.14,0.141
					c-1,0.02-2.05,0.02-3.14,0.029c-1.011,0.021-2.061-0.01-3.141,0.011c-1.02,0.01-2.069-0.03-3.149-0.021
					c-1.021,0.021-2.07,0.03-3.141,0.05c-1.029,0.011-2.08,0.32-3.149,0.33c-1.021,0.011-2.07-0.279-3.141-0.27
					c-1.029,0.01-2.079,0.24-3.14,0.25c-1.04,0.02-2.08,0.24-3.15,0.26c-1.029,0.01-2.079,0-3.14,0.01
					c-1.04,0.011-2.09-0.35-3.149-0.35c-1.03,0.01-2.08,0.41-3.141,0.42c-1.04,0-2.08,0.03-3.14,0.04
					c-1.04,0.01-2.09-0.16-3.15-0.15c-1.04,0.011-2.09-0.119-3.14-0.109c-1.04,0.01-2.09,0.01-3.15,0.02
					c-1.04,0.01-2.09,0.32-3.14,0.33c-1.04,0-2.09-0.32-3.15-0.31c-1.04,0.01-2.09-0.03-3.14-0.03c-1.04,0.01-2.09,0.14-3.14,0.14
					c-1.051,0.011-2.091,0.11-3.15,0.12c-1.04,0.01-2.09-0.05-3.14-0.04c-1.051,0-2.091,0.12-3.15,0.12
					c-1.04,0.01-2.09-0.31-3.14-0.3c-1.051,0.01-2.091,0.42-3.15,0.42c-1.04,0.01-2.09-0.31-3.14-0.3
					c-1.051,0.01-2.101,0.06-3.15,0.06c-1.04,0.011-2.09,0.391-3.14,0.391c-1.05,0.01-2.101-0.13-3.15-0.12
					c-1.04,0.01-2.09-0.13-3.14-0.12s-2.101,0.04-3.15,0.05c-1.05,0-2.09-0.22-3.14-0.21s-2.09,0.06-3.141,0.06
					c-1.05,0.011-2.1,0.091-3.149,0.101c-1.04,0-2.09-0.09-3.141-0.09c-1.05,0.01-2.1,0.34-3.149,0.34
					c-1.04,0.01-2.09,0.03-3.14,0.04c-1.051,0.01-2.101-0.13-3.15-0.13c-1.05,0.01-2.1,0.149-3.15,0.149
					c-1.05,0.011-2.1-0.14-3.15-0.13c-1.05,0.01-2.1-0.08-3.14-0.08c-1.05,0.011-2.1,0.28-3.15,0.28c-1.05,0.01-2.1-0.14-3.15-0.13
					c-1.05,0-2.11-0.05-3.15-0.05c-1.06,0.01-2.11,0.02-3.16,0.029c-1.05,0-2.1-0.01-3.15-0.01c-1.05,0.01-2.1,0.15-3.15,0.15
					c-1.05,0.01-2.1,0.189-3.15,0.2c-1.05,0-2.1-0.12-3.15-0.11c-1.06,0-2.11,0.1-3.15,0.1c-1.06,0.011-2.11-0.25-3.16-0.239
					c-1.05,0-2.1,0.079-3.15,0.09c-1.05,0-2.11-0.17-3.15-0.17c-1.06,0.01-2.11,0.14-3.15,0.149c-1.06,0-2.11-0.01-3.16,0
					C156.301,219.297,155.651,219.407,154.991,219.478z"/>
				<path fill="none" stroke="#FFFFFF" stroke-miterlimit="10" d="M261.811,235.197c0.239-0.021,0.46-0.03,0.68-0.03
					c1.979-0.01,3.06-0.149,3.12-0.189c0.109-0.091,0.09-0.671-0.101-1.53c-0.06-0.25-0.13-0.54-0.22-0.84
					c-0.07-0.271-0.17-0.57-0.27-0.87c-0.32-0.91-0.87-1.9-1.29-2.931c-0.021-0.05-0.04-0.1-0.061-0.149
					c-0.43-1.08-0.7-2.25-1.12-3.18c-0.75-1.671-1.59-2.9-1.83-2.9c-0.05,0-0.529,0.02-1.39,0.03c-0.47,0.01-1.05,0.02-1.74,0.02
					c-0.09,0-0.18,0-0.27,0.01c-0.82,0.04-1.771,0.271-2.851,0.271c-0.949,0-2-0.17-3.13-0.17c-0.52,0-1.069-0.08-1.64-0.16
					c-0.48-0.06-0.97-0.12-1.48-0.12c-0.989,0-2.029,0.15-3.119,0.15c-1.011,0-2.051-0.11-3.12-0.11c-0.46,0-0.931,0.05-1.4,0.1
					c-0.57,0.07-1.14,0.141-1.729,0.141c-1.021,0-2.061,0.2-3.131,0.2c-1.02,0-2.06-0.4-3.13-0.4c-1.02,0-2.069-0.02-3.12-0.02
					c-1.029,0-2.079,0.31-3.13,0.31c-1.029,0.01-2.069-0.11-3.13-0.1c-1.029,0-2.069,0.14-3.13,0.14c-1.03,0-2.07-0.01-3.12-0.01
					c-1.04,0-2.08,0-3.13,0c-1.04,0-2.08-0.141-3.12-0.141c-1.05,0-2.09,0.21-3.13,0.21c-0.38,0-0.75-0.029-1.12-0.069
					c-0.67-0.061-1.34-0.16-2.01-0.15c-1.05,0-2.1,0.03-3.14,0.03s-2.09,0-3.13,0c-0.65,0.01-1.3,0.05-1.95,0.069
					c-0.39,0.03-0.79,0.04-1.18,0.04c-1.05,0-2.09,0.051-3.13,0.051c-1.05,0-2.1-0.051-3.13-0.051c-0.42,0-0.84-0.02-1.26-0.05
					c-0.63-0.04-1.25-0.09-1.87-0.09c-1.06,0-2.1-0.12-3.13-0.12c-1.06,0-2.1,0.04-3.13,0.04c-1.06,0-2.11,0.19-3.13,0.19
					c-1.07,0-2.11-0.08-3.12-0.08c-1.08,0-2.12,0.13-3.13,0.13c-1.09,0-2.13,0.09-3.13,0.09c-1.1,0-2.15-0.09-3.13-0.09
					c-1.13,0-2.17,0.01-3.12,0.01c-1.2,0-2.25-0.13-3.13-0.13c-1.27,0.01-1.69-0.37-2.15-0.41c-0.27-0.03-0.55,0.05-1.01,0.391
					c-0.65,0.46-0.76,0.8-0.81,1.22c-0.05,0.439-0.01,0.979-0.44,1.84c-0.44,0.9-1.01,1.89-1.51,2.9c-0.5,1.02-1.3,1.89-1.74,2.79"
					/>
				<path fill="none" stroke="#FFFFFF" stroke-miterlimit="10" d="M149.831,231.527c-0.8,1.63-1.28,2.93-1.28,2.99
					c0,0.02,1.21,0.26,3.24,0.279c0.88,0.021,1.95-0.189,3.16-0.18c0.96,0.01,2.02,0.229,3.16,0.24c0.99,0.01,2.05,0.01,3.16,0.02
					c0.71,0.01,1.45-0.01,2.21-0.01c0.31-0.01,0.63-0.01,0.95-0.01c1.02,0.01,2.08-0.16,3.17-0.15c1.02,0.01,2.08,0.14,3.16,0.14
					c1.03,0.011,2.08,0.141,3.16,0.15c1.03,0,2.09-0.1,3.16-0.09c1.04,0,2.1-0.26,3.17-0.26c1.04,0.01,2.09-0.04,3.16-0.03
					c0.55,0,1.11,0.08,1.67,0.15c0.5,0.069,0.99,0.13,1.49,0.13c1.05,0.01,2.1,0.149,3.16,0.149c1.05,0.01,2.11,0.09,3.17,0.09
					c1.05,0.011,2.1-0.279,3.16-0.27c1.05,0,2.11,0.02,3.17,0.03c1.05,0,2.1-0.03,3.15-0.021c1.06,0,2.11,0.23,3.16,0.24
					c1.06,0.01,2.11-0.061,3.17-0.05c1.061,0,2.11,0.029,3.17,0.029c1.061,0.011,2.11,0.11,3.17,0.12c0.66,0.011,1.33-0.06,2-0.1
					c0.391-0.03,0.771-0.05,1.16-0.05c1.061,0.01,2.12-0.13,3.17-0.13c1.061,0.01,2.11,0.189,3.16,0.199c1.07,0,2.12-0.27,3.17-0.26
					c1.061,0,2.12,0,3.16,0.01c1.07,0,2.13,0.351,3.17,0.351c1.07,0,2.12-0.07,3.16-0.07c1.07,0.01,2.13-0.04,3.16-0.03
					c1.08,0,2.14-0.18,3.17-0.18c0.58,0.01,1.15,0.07,1.71,0.13c0.49,0.061,0.979,0.11,1.45,0.11c1.09,0,2.149-0.29,3.16-0.29
					c1.1,0,2.159,0.07,3.17,0.07c1.109,0,2.17,0.31,3.16,0.31c1.14,0,2.199,0.05,3.159,0.05c0.25,0,0.49-0.01,0.721-0.02
					c0.63-0.03,1.21-0.09,1.739-0.12"/>
				<path fill="none" stroke="#FFFFFF" stroke-miterlimit="10" d="M179.271,241.867c0.5,1.67-0.75,2.18,0.83,2.43
					c0.22,0.03,1.35,0.101,3.08,0.101c0.87,0,1.9-0.12,3.06-0.13c0.94,0,1.96-0.24,3.05-0.25c0.97,0,1.99,0.27,3.05,0.27
					c0.99-0.01,2-0.44,3.05-0.45c1-0.01,2.02,0.08,3.06,0.07c1-0.01,2.02,0.06,3.05,0.05c1.01-0.01,2.03-0.08,3.06-0.09
					c1.01-0.01,2.04,0.24,3.06,0.229c1.021-0.01,2.04-0.369,3.05-0.38c1.03-0.02,2.061,0.32,3.061,0.311
					c1.04-0.01,2.069-0.12,3.06-0.13c1.05-0.021,2.07,0.029,3.061,0.02c1.06-0.02,2.08-0.38,3.05-0.399
					c1.09-0.011,2.12,0.329,3.06,0.319c1.16-0.02,2.181-0.37,3.04-0.39c1.891-0.021,3.021,0.32,3.05,0.32"/>
				<path fill="none" stroke="#FFFFFF" stroke-miterlimit="10" d="M281.88,1.267c-0.63,1.35-0.58,1.37-1.21,2.72
					c-0.63,1.34-0.689,1.31-1.319,2.66c-0.631,1.35-0.44,1.43-1.07,2.78c-0.64,1.35-0.7,1.32-1.33,2.66
					c-0.64,1.35-0.61,1.36-1.24,2.71"/>
				<path fill="none" stroke="#FFFFFF" stroke-miterlimit="10" d="M264.401,232.147c-0.101-0.62,0.88,0.33,0.05,0.18"/>
				<path fill="none" stroke="#FFFFFF" stroke-miterlimit="10" d="M264.451,232.327c-0.02-0.05-0.03-0.11-0.05-0.18
					c-0.181-0.641-0.37-1.91-0.67-3.341c-0.67-3.329-1.86-7.479-4.4-6.199c-0.2,0.1-0.399,0.22-0.61,0.39
					c-0.46-0.15-0.93-0.27-1.399-0.36c-2.5-0.52-5.061-0.31-7.62-0.06c-2.76,0.28-5.53,0.61-8.23,0.16
					c-0.289-0.05-0.59-0.101-0.89-0.141c-5.43-0.819-11.399-1-17.39-0.84c-5.71,0.141-11.44,0.59-16.73,1.101
					c-0.4,0.04-0.8,0.08-1.2,0.12c-2.96,0.29-6.01,0.05-9.03-0.171c-2.42-0.159-4.83-0.3-7.16-0.13c-0.51,0.04-1.02,0.08-1.54,0.12
					c-9.8,0.771-21.96,2-31.19-0.12c-1.03-0.239-1.96,0.311-2.8,1.271c-1.6,1.85-2.84,5.24-3.69,7.53
					c-0.01,0.02-0.02,0.029-0.02,0.05c-0.27,0.72-0.51,1.34-0.7,1.75c-1.16,2.46,8.4,0.91,9.43,1.06c1.62,0.23,3.26,0.41,4.92,0.53
					c7.09,0.53,14.47,0.17,21.6-0.1c2.56-0.091,5.09-0.171,7.56-0.19c8.13-0.08,16.27,0.25,24.41,0.54
					c7.75,0.28,15.5,0.53,23.261,0.36c1.159-0.021,2.93-0.19,4.93-0.391c4.86-0.47,11.09-1.08,13.3-0.109
					c0.46,0.199,0.97,0.31,1.521,0.34c0.569,0.029,1.159-0.011,1.739-0.12c0.011,0,0.011,0,0.011,0c1.689-0.3,3.25-1.07,3.699-1.75
					c0.2-0.32,0.16-0.62-0.22-0.84C265.101,232.487,264.831,232.397,264.451,232.327"/>
			</g>
		</g>
	</g>
</g>
</svg>
